<?xml version="1.0" encoding="UTF-8" standalone="no"?>
<svg
   xmlns:dc="http://purl.org/dc/elements/1.1/"
   xmlns:cc="http://creativecommons.org/ns#"
   xmlns:rdf="http://www.w3.org/1999/02/22-rdf-syntax-ns#"
   xmlns:svg="http://www.w3.org/2000/svg"
   xmlns="http://www.w3.org/2000/svg"
   xmlns:sodipodi="http://sodipodi.sourceforge.net/DTD/sodipodi-0.dtd"
   xmlns:inkscape="http://www.inkscape.org/namespaces/inkscape"
   inkscape:version="1.0 (4035a4fb49, 2020-05-01)"
   height="357.16071"
   width="350.11758"
   sodipodi:docname="Google-2015-Favicon-01.svg"
   xml:space="preserve"
   viewBox="0 0 350.11758 357.16071"
   y="0px"
   x="0px"
   id="Layer_1"
   version="1.1"><metadata
   id="metadata15"><rdf:RDF><cc:Work
       rdf:about=""><dc:format>image/svg+xml</dc:format><dc:type
         rdf:resource="http://purl.org/dc/dcmitype/StillImage" /><dc:title></dc:title></cc:Work></rdf:RDF></metadata><defs
   id="defs13" /><sodipodi:namedview
   inkscape:current-layer="Layer_1"
   inkscape:window-maximized="1"
   inkscape:window-y="-8"
   inkscape:window-x="-8"
   inkscape:cy="178.60666"
   inkscape:cx="175.01914"
   inkscape:zoom="1.78"
   fit-margin-bottom="0"
   fit-margin-right="0"
   fit-margin-left="0"
   fit-margin-top="0"
   showgrid="false"
   id="namedview11"
   inkscape:window-height="1057"
   inkscape:window-width="1920"
   inkscape:pageshadow="2"
   inkscape:pageopacity="0"
   guidetolerance="10"
   gridtolerance="10"
   objecttolerance="10"
   borderopacity="1"
   bordercolor="#666666"
   pagecolor="#ffffff" />
<style
   id="style2"
   type="text/css">
	.st0{fill:#FFFFFF;}
	.st1{fill:#E94435;}
	.st2{fill:#F8BB15;}
	.st3{fill:#547DBE;}
	.st4{fill:#34A751;}
</style>
<g
   transform="translate(-74.980857,-71.393342)"
   id="XMLID_28_">
	<path
   d="M 195.2,81.2 C 151.7,96.1 114.6,128.7 94,169.8 86.8,184 81.6,199.1 78.5,214.7 c -7.9,38.8 -2.4,80.1 15.5,115.5 11.6,23.1 28.3,43.6 48.5,59.6 19.1,15.2 41.3,26.4 64.9,32.7 29.7,8 61.4,7.8 91.4,1 27.1,-6.2 52.7,-19.2 73.1,-38 21.6,-19.9 37,-46 45.2,-74.1 8.9,-30.7 10.1,-63.4 4.5,-94.8 -56,0 -112,0 -168.1,0 0,23.2 0,46.5 0,69.7 32.4,0 64.9,0 97.3,0 -3.8,22.3 -17,42.6 -35.8,55.2 -11.8,7.9 -25.3,13.1 -39.3,15.5 -14.1,2.4 -28.6,2.7 -42.6,-0.1 -14.3,-2.8 -27.9,-8.8 -39.8,-17.2 -19,-13.3 -33.5,-32.9 -40.9,-54.8 -7.6,-22.3 -7.7,-47.2 0,-69.5 5.3,-15.7 14.2,-30.3 25.9,-42.1 14.4,-14.8 33.1,-25.3 53.3,-29.6 17.3,-3.7 35.5,-3 52.4,2.1 14.4,4.4 27.6,12.2 38.5,22.6 11,-10.9 21.9,-21.9 32.9,-32.8 5.7,-5.9 11.8,-11.5 17.4,-17.6 C 356.2,102.6 336.6,90.2 315.3,82.4 277.1,68.1 233.8,67.8 195.2,81.2 Z"
   class="st0"
   id="XMLID_30_" />
	<path
   d="m 195.2,81.2 c 38.6,-13.4 81.9,-13.1 120.3,1.1 21.3,7.8 40.8,20.2 57.5,35.6 -5.6,6 -11.6,11.7 -17.4,17.6 -11,10.9 -21.9,21.9 -32.9,32.8 -10.9,-10.4 -24.1,-18.3 -38.5,-22.6 -16.9,-5.1 -35.1,-5.8 -52.4,-2.1 -20.2,4.3 -38.9,14.9 -53.3,29.6 -11.7,11.8 -20.6,26.4 -25.9,42.1 -19.5,-15.1 -39,-30.3 -58.5,-45.4 20.5,-41.2 57.6,-73.8 101.1,-88.7 z"
   class="st1"
   id="XMLID_31_" />
	<path
   d="m 78.5,214.7 c 3.1,-15.6 8.4,-30.7 15.5,-44.9 19.5,15.1 39,30.3 58.5,45.4 -7.7,22.3 -7.6,47.2 0,69.5 C 133,299.8 113.5,315 94,330.1 76.1,294.9 70.6,253.5 78.5,214.7 Z"
   class="st2"
   id="XMLID_32_" />
	<path
   d="m 253.6,216.5 c 56,0 112,0 168.1,0 5.6,31.4 4.4,64.1 -4.5,94.8 -8.2,28.1 -23.6,54.3 -45.2,74.1 -18.9,-14.7 -37.9,-29.4 -56.7,-44.1 18.8,-12.5 32,-32.9 35.8,-55.2 -32.4,0 -64.9,0 -97.3,0 -0.3,-23.1 -0.2,-46.3 -0.2,-69.6 z"
   class="st3"
   id="XMLID_33_" />
	<path
   d="m 94,330.2 c 19.5,-15.1 39,-30.3 58.5,-45.4 7.4,22 21.9,41.5 40.9,54.8 11.9,8.4 25.5,14.3 39.8,17.2 14,2.8 28.6,2.5 42.6,0.1 14,-2.4 27.5,-7.6 39.3,-15.5 18.9,14.7 37.9,29.4 56.7,44.1 -20.4,18.9 -46,31.8 -73.1,38 -29.9,6.8 -61.6,7 -91.4,-1 C 183.7,416.2 161.5,405 142.4,389.8 122.3,373.7 105.6,353.2 94,330.2 Z"
   class="st4"
   id="XMLID_34_" />
</g>
</svg>
