<?xml version="1.0" encoding="UTF-8" standalone="no"?>
<svg
   xmlns:dc="http://purl.org/dc/elements/1.1/"
   xmlns:cc="http://creativecommons.org/ns#"
   xmlns:rdf="http://www.w3.org/1999/02/22-rdf-syntax-ns#"
   xmlns:svg="http://www.w3.org/2000/svg"
   xmlns="http://www.w3.org/2000/svg"
   xmlns:sodipodi="http://sodipodi.sourceforge.net/DTD/sodipodi-0.dtd"
   xmlns:inkscape="http://www.inkscape.org/namespaces/inkscape"
   inkscape:version="1.0 (4035a4fb49, 2020-05-01)"
   height="364.79999"
   width="365"
   sodipodi:docname="instagram.svg"
   xml:space="preserve"
   viewBox="-229 31 365 364.79999"
   y="0px"
   x="0px"
   id="Logo"
   version="1.1"><metadata
   id="metadata48"><rdf:RDF><cc:Work
       rdf:about=""><dc:format>image/svg+xml</dc:format><dc:type
         rdf:resource="http://purl.org/dc/dcmitype/StillImage" /><dc:title></dc:title></cc:Work></rdf:RDF></metadata><defs
   id="defs46" /><sodipodi:namedview
   inkscape:current-layer="Logo"
   inkscape:window-maximized="1"
   inkscape:window-y="-8"
   inkscape:window-x="-8"
   inkscape:cy="182.4"
   inkscape:cx="182.5"
   inkscape:zoom="1.78"
   fit-margin-bottom="0"
   fit-margin-right="0"
   fit-margin-left="0"
   fit-margin-top="0"
   showgrid="false"
   id="namedview44"
   inkscape:window-height="1057"
   inkscape:window-width="1920"
   inkscape:pageshadow="2"
   inkscape:pageopacity="0"
   guidetolerance="10"
   gridtolerance="10"
   objecttolerance="10"
   borderopacity="1"
   bordercolor="#666666"
   pagecolor="#ffffff" />
<style
   id="style2"
   type="text/css">
	.st0{fill:url(#SVGID_1_);}
	.st1{fill:url(#SVGID_2_);}
	.st2{fill:#BC30A0;}
	.st3{fill:url(#SVGID_3_);}
</style>
<g
   transform="translate(-67.5,-67.6)"
   id="g41">
	<linearGradient
   y2="469.2211"
   x2="77.262901"
   y1="69.339798"
   x1="-42.269299"
   gradientUnits="userSpaceOnUse"
   id="SVGID_1_">
		<stop
   id="stop4"
   style="stop-color:#4367DC"
   offset="0" />
		<stop
   id="stop6"
   style="stop-color:#4C62D6"
   offset="4.288606e-002" />
		<stop
   id="stop8"
   style="stop-color:#6654C7"
   offset="0.1142" />
		<stop
   id="stop10"
   style="stop-color:#8F3DAE"
   offset="0.2045" />
		<stop
   id="stop12"
   style="stop-color:#9E35A5"
   offset="0.2341" />
		<stop
   id="stop14"
   style="stop-color:#D42F7F"
   offset="0.4512" />
		<stop
   id="stop16"
   style="stop-color:#D73578"
   offset="0.8242" />
	</linearGradient>
	<path
   style="fill:url(#SVGID_1_)"
   id="path19"
   d="m 202.4,205.8 c -0.9,-19.4 -4,-32.7 -8.5,-44.3 -4.7,-12 -10.9,-22.2 -21,-32.3 -10.1,-10.1 -20.3,-16.4 -32.3,-21 -11.6,-4.5 -24.9,-7.6 -44.3,-8.5 -19.5,-0.9 -25.7,-1.1 -75.2,-1.1 -49.6,0 -55.8,0.2 -75.2,1.1 -19.4,0.9 -32.7,4 -44.3,8.5 -12,4.7 -22.2,10.9 -32.3,21 -10.1,10.1 -16.4,20.3 -21,32.3 -4.5,11.6 -7.6,24.9 -8.5,44.3 -0.9,19.5 -1.1,25.7 -1.1,75.2 0,49.6 0.2,55.8 1.1,75.2 0.9,19.4 4,32.7 8.5,44.3 4.7,12 10.9,22.2 21,32.3 10.1,10.1 20.3,16.4 32.3,21 11.6,4.5 24.9,7.6 44.3,8.5 19.5,0.9 25.7,1.1 75.2,1.1 49.6,0 55.8,-0.2 75.2,-1.1 19.4,-0.9 32.7,-4 44.3,-8.5 12,-4.7 22.2,-10.9 32.3,-21 10.1,-10.1 16.4,-20.3 21,-32.3 4.5,-11.6 7.6,-24.9 8.5,-44.3 0.9,-19.5 1.1,-25.7 1.1,-75.2 0,-49.5 -0.2,-55.8 -1.1,-75.2 z m -32.8,148.9 c -0.8,17.8 -3.8,27.5 -6.3,33.9 -3.3,8.5 -7.3,14.6 -13.7,21 -6.4,6.4 -12.5,10.3 -21,13.7 -6.4,2.5 -16.1,5.5 -33.9,6.3 -19.2,0.9 -25,1.1 -73.7,1.1 -48.7,0 -54.5,-0.2 -73.7,-1.1 -17.8,-0.8 -27.5,-3.8 -33.9,-6.3 -8.5,-3.3 -14.6,-7.3 -21,-13.7 -6.4,-6.4 -10.3,-12.5 -13.7,-21 -2.5,-6.4 -5.5,-16.1 -6.3,-33.9 -0.9,-19.2 -1.1,-25 -1.1,-73.7 0,-48.7 0.2,-54.5 1.1,-73.7 0.8,-17.8 3.8,-27.5 6.3,-33.9 3.3,-8.5 7.3,-14.6 13.7,-21 6.4,-6.4 12.5,-10.3 21,-13.7 6.4,-2.5 16.1,-5.5 33.9,-6.3 19.2,-0.9 25,-1.1 73.7,-1.1 48.7,0 54.5,0.2 73.7,1.1 17.8,0.8 27.5,3.8 33.9,6.3 8.5,3.3 14.6,7.3 21,13.7 6.4,6.4 10.3,12.5 13.7,21 2.5,6.4 5.5,16.1 6.3,33.9 0.9,19.2 1.1,25 1.1,73.7 0,48.7 -0.3,54.5 -1.1,73.7 z"
   class="st0" />
	<linearGradient
   y2="366.94559"
   x2="-30.117001"
   y1="205.82739"
   x1="65.709602"
   gradientUnits="userSpaceOnUse"
   id="SVGID_2_">
		<stop
   id="stop21"
   style="stop-color:#D42F7F"
   offset="0.3304" />
		<stop
   id="stop23"
   style="stop-color:#F7772E"
   offset="1" />
	</linearGradient>
	<path
   style="fill:url(#SVGID_2_)"
   id="path26"
   d="m 21,187.3 c -51.8,0 -93.7,42 -93.7,93.7 0,51.8 42,93.7 93.7,93.7 51.7,0 93.7,-42 93.7,-93.7 0,-51.8 -41.9,-93.7 -93.7,-93.7 z m 0,154.5 c -33.6,0 -60.8,-27.2 -60.8,-60.8 0,-33.6 27.2,-60.8 60.8,-60.8 33.6,0 60.8,27.2 60.8,60.8 0,33.6 -27.2,60.8 -60.8,60.8 z"
   class="st1" />
	<circle
   id="circle28"
   r="21.9"
   cy="183.60001"
   cx="118.4"
   class="st2" />
	
		<linearGradient
   gradientTransform="matrix(-1,0,0,1,42,0)"
   y2="468.56961"
   x2="99.642899"
   y1="83.667397"
   x1="-61.736301"
   gradientUnits="userSpaceOnUse"
   id="SVGID_3_">
		<stop
   id="stop30"
   style="stop-color:#9E35A5;stop-opacity:0"
   offset="0.2341" />
		<stop
   id="stop32"
   style="stop-color:#D42F7F;stop-opacity:0.5"
   offset="0.4512" />
		<stop
   id="stop34"
   style="stop-color:#F7772E"
   offset="0.7524" />
		<stop
   id="stop36"
   style="stop-color:#FEF780"
   offset="0.9624" />
	</linearGradient>
	<path
   style="fill:url(#SVGID_3_)"
   id="path39"
   d="m -161.5,281 c 0,49.6 0.2,55.8 1.1,75.2 0.9,19.4 4,32.7 8.5,44.3 4.7,12 10.9,22.2 21,32.3 10.1,10.1 20.3,16.4 32.3,21 11.6,4.5 24.9,7.6 44.3,8.5 19.5,0.9 25.7,1.1 75.2,1.1 49.6,0 55.8,-0.2 75.2,-1.1 19.4,-0.9 32.7,-4 44.3,-8.5 12,-4.7 22.2,-10.9 32.3,-21 10.1,-10.1 16.4,-20.3 21,-32.3 4.5,-11.6 7.6,-24.9 8.5,-44.3 0.9,-19.5 1.1,-25.7 1.1,-75.2 0,-49.6 -0.2,-55.8 -1.1,-75.2 -0.9,-19.4 -4,-32.7 -8.5,-44.3 -4.7,-12 -10.9,-22.2 -21,-32.3 -10.1,-10.1 -20.3,-16.4 -32.3,-21 -11.6,-4.5 -24.9,-7.6 -44.3,-8.5 -19.5,-0.9 -25.7,-1.1 -75.2,-1.1 -49.6,0 -55.8,0.2 -75.2,1.1 -19.4,0.9 -32.7,4 -44.3,8.5 -12,4.7 -22.2,10.9 -32.3,21 -10.1,10.1 -16.4,20.3 -21,32.3 -4.5,11.6 -7.6,24.9 -8.5,44.3 -0.9,19.4 -1.1,25.6 -1.1,75.2 z m 32.9,0 c 0,-48.7 0.2,-54.5 1.1,-73.7 0.8,-17.8 3.8,-27.5 6.3,-33.9 3.3,-8.5 7.3,-14.6 13.7,-21 6.4,-6.4 12.5,-10.3 21,-13.7 6.4,-2.5 16.1,-5.5 33.9,-6.3 19.2,-0.9 25,-1.1 73.7,-1.1 48.7,0 54.5,0.2 73.7,1.1 17.8,0.8 27.5,3.8 33.9,6.3 8.5,3.3 14.6,7.3 21,13.7 6.4,6.4 10.3,12.5 13.7,21 2.5,6.4 5.5,16.1 6.3,33.9 0.9,19.2 1.1,25 1.1,73.7 0,48.7 -0.2,54.5 -1.1,73.7 -0.8,17.8 -3.8,27.5 -6.3,33.9 -3.3,8.5 -7.3,14.6 -13.7,21 -6.4,6.4 -12.5,10.3 -21,13.7 -6.4,2.5 -16.1,5.5 -33.9,6.3 -19.2,0.9 -25,1.1 -73.7,1.1 -48.7,0 -54.5,-0.2 -73.7,-1.1 -17.8,-0.8 -27.5,-3.8 -33.9,-6.3 -8.5,-3.3 -14.6,-7.3 -21,-13.7 -6.4,-6.4 -10.3,-12.5 -13.7,-21 -2.5,-6.4 -5.5,-16.1 -6.3,-33.9 -0.9,-19.2 -1.1,-25 -1.1,-73.7 z"
   class="st3" />
</g>
</svg>
