<?xml version="1.0" encoding="UTF-8" standalone="no"?>
<!DOCTYPE svg PUBLIC "-//W3C//DTD SVG 1.1//EN" "http://www.w3.org/Graphics/SVG/1.1/DTD/svg11.dtd">
<svg xmlns="http://www.w3.org/2000/svg" xmlns:xlink="http://www.w3.org/1999/xlink" version="1.1" width="612pt" height="1008pt" viewBox="0 0 612 1008">
<g enable-background="new">
<g>
<clipPath id="cp0">
<path transform="matrix(1,0,0,-1,0,1008)" d="M 0 .00024414 L 612 .00024414 L 612 1008.00027 L 0 1008.00027 Z " fill-rule="evenodd"/>
</clipPath>
<g clip-path="url(#cp0)">
<path transform="matrix(1,0,0,-1,0,1008)" d="M 0 .000061035 L 612 .000061035 L 612 1008.00009 L 0 1008.00009 Z " fill="#ffffff" fill-rule="evenodd"/>
</g>
<clipPath id="cp1">
<path transform="matrix(1,0,0,-1,0,1008)" d="M .00000912 0 L 612 0 L 612 1008 L .00000912 1008 Z " fill-rule="evenodd"/>
</clipPath>
<g clip-path="url(#cp1)">
<text xml:space="preserve" transform="matrix(1 0 -0 1 0 1008)" font-size="24" font-family="Garamond" font-weight="bold"><tspan y="-975.91" x="14.016 26.256 33.768 45.312 53.568 61.08 72.408 80.664">Starters</tspan></text>
</g>
<clipPath id="cp2">
<path transform="matrix(1,0,0,-1,0,1008)" d="M .00000912 0 L 612 0 L 612 1008 L .00000912 1008 Z " fill-rule="evenodd"/>
</clipPath>
<g clip-path="url(#cp2)">
<text xml:space="preserve" transform="matrix(1 0 -0 1 0 1008)" font-size="14.064" font-family="Garamond"><tspan y="-950.59" x="14.016 23.241986 28.375346 34.282224 40.034399 44.71771 50.94806 58.1207 62.22739 65.58869 71.340869 74.856868 78.07752 83.787509 87.303508 95.952869 103.1255 110.01686 114.70017 120.9024 127.737499 130.95815 137.25882 144.43146 151.6041 158.77674">Escargot a la Bourguignon </tspan></text>
</g>
<clipPath id="cp3">
<path transform="matrix(1,0,0,-1,0,1008)" d="M .00000912 0 L 612 0 L 612 1008 L .00000912 1008 Z " fill-rule="evenodd"/>
</clipPath>
<g clip-path="url(#cp3)">
<text xml:space="preserve" transform="matrix(1 0 -0 1 0 1008)" font-size="15.984" font-family="Garamond"><tspan y="-950.59" x="162.12">-</tspan></text>
</g>
<clipPath id="cp4">
<path transform="matrix(1,0,0,-1,0,1008)" d="M .00000912 0 L 612 0 L 612 1008 L .00000912 1008 Z " fill-rule="evenodd"/>
</clipPath>
<g clip-path="url(#cp4)">
<text xml:space="preserve" transform="matrix(1 0 -0 1 0 1008)" font-size="9.96" font-family="Garamond"><tspan y="-950.59" x="171.12 176.15976 180.35292 183.69948 188.73925 192.81288 195.09372 197.72316 202.18524 206.229 209.59549 211.87633 214.15717 218.35033 220.86025 225.90001 230.81029 233.71862 236.56719 240.76035 244.1069 246.61682 250.21239 254.28603 259.1963 263.38945 267.58259 269.76383 272.14427 276.60633 279.923 282.20387 284.4847 286.76557 290.97865 296.00846 298.4088 302.60197 304.8828 308.95646 313.99623 318.06986 320.97819 323.82676 327.9004 330.52983 332.93019">herbal garlic butter sauce, grilled ciabatta   </tspan></text>
</g>
<clipPath id="cp5">
<path transform="matrix(1,0,0,-1,0,1008)" d="M .00000912 0 L 612 0 L 612 1008 L .00000912 1008 Z " fill-rule="evenodd"/>
</clipPath>
<g clip-path="url(#cp5)">
<text xml:space="preserve" transform="matrix(1 0 -0 1 0 1008)" font-size="14.064" font-family="Garamond"><tspan y="-950.59" x="335.69 342.29">15</tspan></text>
</g>
<clipPath id="cp6">
<path transform="matrix(1,0,0,-1,0,1008)" d="M .00000912 0 L 612 0 L 612 1008 L .00000912 1008 Z " fill-rule="evenodd"/>
</clipPath>
<g clip-path="url(#cp6)">
<text xml:space="preserve" transform="matrix(1 0 -0 1 0 1008)" font-size="14.04" font-family="Garamond"><tspan y="-927.53" x="14.016 24.84084 29.51616 32.73132 35.94648 39.203763 45.05844 52.148645 55.5042 63.408723 70.611248 75.28657 79.386249 86.546649 93.76321 99.61789 102.87517 106.090328 113.306888 116.42377 128.17527 135.05486 140.17946 147.33986 152.01519 159.24579 166.40619 177.13275">Grilled Portobello Mushroom </tspan></text>
</g>
<clipPath id="cp7">
<path transform="matrix(1,0,0,-1,0,1008)" d="M .00000912 0 L 612 0 L 612 1008 L .00000912 1008 Z " fill-rule="evenodd"/>
</clipPath>
<g clip-path="url(#cp7)">
<text xml:space="preserve" transform="matrix(1 0 -0 1 0 1008)" font-size="15.96" font-family="Garamond"><tspan y="-927.53" x="180.38">-</tspan></text>
</g>
<clipPath id="cp8">
<path transform="matrix(1,0,0,-1,0,1008)" d="M .00000912 0 L 612 0 L 612 1008 L .00000912 1008 Z " fill-rule="evenodd"/>
</clipPath>
<g clip-path="url(#cp8)">
<text xml:space="preserve" transform="matrix(1 0 -0 1 0 1008)" font-size="9.96" font-family="Garamond"><tspan y="-927.53" x="189.38 194.41977 196.7006 201.61089 205.80405 208.31397 212.50713 217.54689 221.74005 225.93321 229.52878 233.72194 235.90319 238.28363 241.50072 243.78156 247.99463 250.27547 255.30527 257.5861 262.04817 265.36485 269.5779 273.77107 278.81083 282.4064 284.91633 288.5119 292.58555 294.8664 298.94004 303.96986 306.59928 308.99964 311.50956">blue cheese, field greens salad    </tspan></text>
</g>
<clipPath id="cp9">
<path transform="matrix(1,0,0,-1,0,1008)" d="M .00000912 0 L 612 0 L 612 1008 L .00000912 1008 Z " fill-rule="evenodd"/>
</clipPath>
<g clip-path="url(#cp9)">
<text xml:space="preserve" transform="matrix(1 0 -0 1 0 1008)" font-size="14.04" font-family="Garamond"><tspan y="-927.53" x="314.21 320.80995">12</tspan></text>
</g>
<clipPath id="cp10">
<path transform="matrix(1,0,0,-1,0,1008)" d="M .00000912 0 L 612 0 L 612 1008 L .00000912 1008 Z " fill-rule="evenodd"/>
</clipPath>
<g clip-path="url(#cp10)">
<text xml:space="preserve" transform="matrix(1 0 -0 1 0 1008)" font-size="14.04" font-family="Garamond"><tspan y="-906.89" x="14.016 22.9314 30.0918 33.30696 39.203763 45.78852 51.6432 58.873804 62.22936 70.86396 76.71864 81.39397 84.651248 90.50593 96.27637 102.86113 106.07629 109.58629 120.41113 127.23457 138.05942 145.21982 148.43498 151.70632 158.86672 165.15663 170.28124 173.55255 177.06255 183.64731 190.23207 193.81227 197.32227 200.7761 204.28609 207.8382 211.34819 214.80202 221.52718 228.68758 233.3629 236.63423 247.45908 254.61948 257.87678 268.7016 275.51103 286.33586 293.49626 296.7114 299.9827 307.1431 313.433 318.55763 321.94126 325.45127 332.036 338.62077 342.13078 345.6829 349.1929 352.64677 356.15678">Chicken Teriyaki Dumplings  12       Shrimp Dumplings  14      </tspan></text>
</g>
<clipPath id="cp11">
<path transform="matrix(1,0,0,-1,0,1008)" d="M .00000912 0 L 612 0 L 612 1008 L .00000912 1008 Z " fill-rule="evenodd"/>
</clipPath>
<g clip-path="url(#cp11)">
<text xml:space="preserve" transform="matrix(1 0 -0 1 0 1008)" font-size="14.04" font-family="Garamond"><tspan y="-886.73" x="14.016 22.791 28.645682 35.72184 39.077398 47.852396 55.012796 62.229356 67.35396 71.453639 77.30832 82.01173 85.36729 97.83481 101.049968 108.266529 114.50028 119.624889 122.89621 126.40621 132.99097 139.57573 143.15593 146.66593 150.11975 153.69995 157.20995 160.66378 164.17377 167.6276 171.13759 174.6897 178.19969 181.65352 185.16352 188.61734 192.12734 195.67945 199.18944 202.64327 206.15326 209.60709 213.11708 216.66919 224.57372 229.24904 232.49228 238.34696 245.43717 248.6804 255.40557 262.56599 267.2413 270.5126 281.33744 288.49784 291.86744 295.37745 298.8313 302.3413 308.92607">Red Rooster Wings  14                      Fried Shrimp    14</tspan></text>
</g>
<clipPath id="cp12">
<path transform="matrix(1,0,0,-1,0,1008)" d="M .00000912 0 L 612 0 L 612 1008 L .00000912 1008 Z " fill-rule="evenodd"/>
</clipPath>
<g clip-path="url(#cp12)">
<text xml:space="preserve" transform="matrix(1 0 -0 1 0 1008)" font-size="14.04" font-family="Garamond"><tspan y="-866.57" x="14.016 21.92052 31.15884 36.07284 39.65304 51.404523 58.284124 63.408723 68.533329 74.43013 77.64529 82.81201 86.05525 93.21565 97.91906 101.27462 109.31954 112.5347 116.63438 120.734058 123.94921 129.8039 133.42621 144.25106 150.10573 155.9604 162.54517 166.05516 174.97057 178.18573 183.92809 194.75293 199.87754">PEI Mussels or Little Neck Clams </tspan></text>
</g>
<clipPath id="cp13">
<path transform="matrix(1,0,0,-1,0,1008)" d="M .00000912 0 L 612 0 L 612 1008 L .00000912 1008 Z " fill-rule="evenodd"/>
</clipPath>
<g clip-path="url(#cp13)">
<text xml:space="preserve" transform="matrix(1 0 -0 1 0 1008)" font-size="14.04" font-family="Garamond"><tspan y="-866.57" x="203.42">&#x2013;</tspan></text>
</g>
<clipPath id="cp14">
<path transform="matrix(1,0,0,-1,0,1008)" d="M .00000912 0 L 612 0 L 612 1008 L .00000912 1008 Z " fill-rule="evenodd"/>
</clipPath>
<g clip-path="url(#cp14)">
<text xml:space="preserve" transform="matrix(1 0 -0 1 0 1008)" font-size="9.96" font-family="Garamond"><tspan y="-866.57" x="213.98 220.58348 225.62325 227.90409 230.81241 234.96573 237.38602 243.9895 246.27034 251.3101 255.50327 257.6845 260.294 264.75608 268.79985 272.16633 274.44718 276.72804 280.92118 283.4311 288.47087 291.8174 294.32734 302.0065 306.08015 309.4267 311.70756 316.7473 320.82096 324.1675 328.24116 331.10963 334.7052 338.77885 343.68913 347.88227 352.0754 354.47578 356.9857 359.38606">white wine, garlic or marinara sauce    </tspan></text>
</g>
<clipPath id="cp15">
<path transform="matrix(1,0,0,-1,0,1008)" d="M .00000912 0 L 612 0 L 612 1008 L .00000912 1008 Z " fill-rule="evenodd"/>
</clipPath>
<g clip-path="url(#cp15)">
<text xml:space="preserve" transform="matrix(1 0 -0 1 0 1008)" font-size="14.04" font-family="Garamond"><tspan y="-866.57" x="362.09 368.68995">15</tspan></text>
</g>
<clipPath id="cp16">
<path transform="matrix(1,0,0,-1,0,1008)" d="M .00000912 0 L 612 0 L 612 1008 L .00000912 1008 Z " fill-rule="evenodd"/>
</clipPath>
<g clip-path="url(#cp16)">
<text xml:space="preserve" transform="matrix(1 0 -0 1 0 1008)" font-size="14.04" font-family="Garamond"><tspan y="-844.01" x="14.016 22.791 28.645682 35.72184 39.077398 47.852396 55.012796 62.229356 67.35396 71.453639 77.30832 82.01173 85.36729 92.092449 97.83481 101.049968 106.820407 113.88252">Red Rooster Salad </tspan></text>
</g>
<clipPath id="cp17">
<path transform="matrix(1,0,0,-1,0,1008)" d="M .00000912 0 L 612 0 L 612 1008 L .00000912 1008 Z " fill-rule="evenodd"/>
</clipPath>
<g clip-path="url(#cp17)">
<text xml:space="preserve" transform="matrix(1 0 -0 1 0 1008)" font-size="15.96" font-family="Garamond"><tspan y="-844.01" x="117.36">-</tspan></text>
</g>
<clipPath id="cp18">
<path transform="matrix(1,0,0,-1,0,1008)" d="M .00000912 0 L 612 0 L 612 1008 L .00000912 1008 Z " fill-rule="evenodd"/>
</clipPath>
<g clip-path="url(#cp18)">
<text xml:space="preserve" transform="matrix(1 0 -0 1 0 1008)" font-size="9.96" font-family="Garamond"><tspan y="-844.01" x="126.36 131.39977 134.74633 139.2084 143.25217 148.33177 150.61261 154.76593 157.53482 160.7519 163.03275 167.24582 169.52666 174.55646 176.8373 181.29938 184.61606 188.82913 193.0223 198.06206 201.65763 203.83887 206.4484 209.35672 214.36661 222.04576 226.1194 229.02773 234.03762 238.23078 241.82634 244.00759 246.85616 251.04932 255.9596 260.15275 265.06303 272.7422 277.78196 281.9751 285.32167 287.5029 289.88334 293.2299 297.42304 302.45286 304.8532 309.89299 314.93275 317.2136 322.25337 327.29313 330.8887 333.06996 335.9185 342.52198 346.5956 348.87648 353.91624 358.8265 361.73484 365.3105 367.49174">organic field greens, tomatoes, cucumber, red onions, walnuts, </tspan></text>
</g>
<clipPath id="cp19">
<path transform="matrix(1,0,0,-1,0,1008)" d="M .00000912 0 L 612 0 L 612 1008 L .00000912 1008 Z " fill-rule="evenodd"/>
</clipPath>
<g clip-path="url(#cp19)">
<text xml:space="preserve" transform="matrix(1 0 -0 1 0 1008)" font-size="14.04" font-family="Garamond"><tspan y="-844.01" x="370.49 377.08998">10</tspan></text>
</g>
<clipPath id="cp20">
<path transform="matrix(1,0,0,-1,0,1008)" d="M .00000912 0 L 612 0 L 612 1008 L .00000912 1008 Z " fill-rule="evenodd"/>
</clipPath>
<g clip-path="url(#cp20)">
<text xml:space="preserve" transform="matrix(1 0 -0 1 0 1008)" font-size="9.96" font-family="Garamond"><tspan y="-827.93" x="16.536 20.99808 26.01792 30.09156 32.99988 35.59944 39.792604 44.832365 49.025526 53.218687 56.814245 61.007406 63.188646 65.569087 68.91564 72.98928 76.58484 81.624599 86.66435 90.85751 94.20407 97.55063 101.74379 104.37323 109.04447 111.32531 116.37503 120.44867 122.72951 127.19159 130.50827 134.72135 137.62967 140.47824 144.6714">goat cheese, raspberry vinaigrette </tspan></text>
</g>
<clipPath id="cp21">
<path transform="matrix(1,0,0,-1,0,1008)" d="M .00000912 0 L 612 0 L 612 1008 L .00000912 1008 Z " fill-rule="evenodd"/>
</clipPath>
<g clip-path="url(#cp21)">
<text xml:space="preserve" transform="matrix(1 0 -0 1 0 1008)" font-size="14.04" font-family="Garamond"><tspan y="-808.97" x="14.016 20.741162 27.901562 35.118124 42.278524 47.459283 54.04404">Shopska</tspan></text>
</g>
<clipPath id="cp22">
<path transform="matrix(1,0,0,-1,0,1008)" d="M .00000912 0 L 612 0 L 612 1008 L .00000912 1008 Z " fill-rule="evenodd"/>
</clipPath>
<g clip-path="url(#cp22)">
<text xml:space="preserve" transform="matrix(1 0 -0 1 0 1008)" font-size="14.04" font-family="Garamond"><tspan y="-808.97" x="63.12 69.84516 75.587528 78.80268 84.57312 91.63524">Salad </tspan></text>
</g>
<clipPath id="cp23">
<path transform="matrix(1,0,0,-1,0,1008)" d="M .00000912 0 L 612 0 L 612 1008 L .00000912 1008 Z " fill-rule="evenodd"/>
</clipPath>
<g clip-path="url(#cp23)">
<text xml:space="preserve" transform="matrix(1 0 -0 1 0 1008)" font-size="9.96" font-family="Garamond"><tspan y="-808.97" x="95.16">&#x2013;</tspan></text>
</g>
<clipPath id="cp24">
<path transform="matrix(1,0,0,-1,0,1008)" d="M .00000912 0 L 612 0 L 612 1008 L .00000912 1008 Z " fill-rule="evenodd"/>
</clipPath>
<g clip-path="url(#cp24)">
<text xml:space="preserve" transform="matrix(1 0 -0 1 0 1008)" font-size="9.96" font-family="Garamond"><tspan y="-808.97" x="105.12 108.02832 113.0382 120.71736 124.791 127.69932 132.7092 136.90236 140.49793 142.67917 145.52774 149.7209 154.63118 158.82434 163.73462 171.41378 176.45354 180.6467 183.99326 187.58882 189.77007 192.15052 195.49707 200.53684 204.61048 208.20604 211.11437 215.26769 220.3174 222.94684 226.2934 230.48656 235.51636 237.91672 242.95648 247.14965 252.1894 257.2292 261.42234 264.7689 268.36448 270.54573 273.1552 276.50178 280.69493 285.72474 288.1251 293.16487 298.20463 300.48548 305.52525 310.565 314.16059">tomatoes, cucumbers, roasted red peppers, red onions,</tspan></text>
</g>
<clipPath id="cp25">
<path transform="matrix(1,0,0,-1,0,1008)" d="M .00000912 0 L 612 0 L 612 1008 L .00000912 1008 Z " fill-rule="evenodd"/>
</clipPath>
<g clip-path="url(#cp25)">
<text xml:space="preserve" transform="matrix(1 0 -0 1 0 1008)" font-size="9.96" font-family="Garamond"><tspan y="-788.81" x="16.536 21.57576 25.6494 28.99596 32.59152 34.87236 39.06552 43.258684 45.439924 47.929925 51.565324 56.575204 59.921766 64.11493 69.14473 74.17453 78.36769 83.39749 85.79785 89.01493 93.22801 96.13633 100.18009 102.69997 105.10033 107.610248">parsley, shredded feta    </tspan></text>
</g>
<clipPath id="cp26">
<path transform="matrix(1,0,0,-1,0,1008)" d="M .00000912 0 L 612 0 L 612 1008 L .00000912 1008 Z " fill-rule="evenodd"/>
</clipPath>
<g clip-path="url(#cp26)">
<text xml:space="preserve" transform="matrix(1 0 -0 1 0 1008)" font-size="14.04" font-family="Garamond"><tspan y="-788.81" x="110.28 116.87996">10</tspan></text>
</g>
<clipPath id="cp27">
<path transform="matrix(1,0,0,-1,0,1008)" d="M .00000912 0 L 612 0 L 612 1008 L .00000912 1008 Z " fill-rule="evenodd"/>
</clipPath>
<g clip-path="url(#cp27)">
<text xml:space="preserve" transform="matrix(1 0 -0 1 0 1008)" font-size="14.04" font-family="Garamond"><tspan y="-766.25" x="16.536 25.170599 31.02528 36.92208 41.021764 46.146364 49.65636 56.381525 62.081766 65.35308 71.09544 78.15756">Beets Salad </tspan></text>
</g>
<clipPath id="cp28">
<path transform="matrix(1,0,0,-1,0,1008)" d="M .00000912 0 L 612 0 L 612 1008 L .00000912 1008 Z " fill-rule="evenodd"/>
</clipPath>
<g clip-path="url(#cp28)">
<text xml:space="preserve" transform="matrix(1 0 -0 1 0 1008)" font-size="15.96" font-family="Garamond"><tspan y="-766.25" x="81.72">&#x2013;</tspan></text>
</g>
<clipPath id="cp29">
<path transform="matrix(1,0,0,-1,0,1008)" d="M .00000912 0 L 612 0 L 612 1008 L .00000912 1008 Z " fill-rule="evenodd"/>
</clipPath>
<g clip-path="url(#cp29)">
<text xml:space="preserve" transform="matrix(1 0 -0 1 0 1008)" font-size="9.96" font-family="Garamond"><tspan y="-766.25" x="97.68 102.71976 106.066318 110.5284 114.57216 119.65176 121.932598">organic</tspan></text>
</g>
<clipPath id="cp30">
<path transform="matrix(1,0,0,-1,0,1008)" d="M .00000912 0 L 612 0 L 612 1008 L .00000912 1008 Z " fill-rule="evenodd"/>
</clipPath>
<g clip-path="url(#cp30)">
<text xml:space="preserve" transform="matrix(1 0 -0 1 0 1008)" font-size="9.96" font-family="Garamond"><tspan y="-766.25" x="130.32 133.5371 135.81793 140.031 142.31185 147.34165 149.62248 154.08457 157.40125 161.61432 165.80748 170.84725 174.44281 176.62406 179.23358 182.58014 187.6199 191.69355 195.28911 198.19744 202.35076 207.40047 209.91039 213.98403 216.26486 223.94402 228.98378 234.02355 239.05335 242.64891 244.83016 247.67873 252.71849 256.06504 260.13868 265.17845 269.6405 273.79383 276.57267 280.16825 284.3614 288.82347 296.50263 300.65596 305.73554 308.60404 310.78529 313.39479 315.9047 318.4146 320.81498">field greens, roasted almonds, orange segment,     </tspan></text>
</g>
<clipPath id="cp31">
<path transform="matrix(1,0,0,-1,0,1008)" d="M .00000912 0 L 612 0 L 612 1008 L .00000912 1008 Z " fill-rule="evenodd"/>
</clipPath>
<g clip-path="url(#cp31)">
<text xml:space="preserve" transform="matrix(1 0 -0 1 0 1008)" font-size="14.04" font-family="Garamond"><tspan y="-766.25" x="323.57 330.16999">10</tspan></text>
</g>
<clipPath id="cp32">
<path transform="matrix(1,0,0,-1,0,1008)" d="M .00000912 0 L 612 0 L 612 1008 L .00000912 1008 Z " fill-rule="evenodd"/>
</clipPath>
<g clip-path="url(#cp32)">
<text xml:space="preserve" transform="matrix(1 0 -0 1 0 1008)" font-size="9.96" font-family="Garamond"><tspan y="-750.17" x="14.016 18.20916 20.49 23.39832 26.715 31.63524 35.2308 37.63116 42.302404 44.583246 49.632966 53.706609 55.98745 60.44953 63.766214 67.979297 70.88761 73.73617">citrus vinaigrette</tspan></text>
</g>
<clipPath id="cp33">
<path transform="matrix(1,0,0,-1,0,1008)" d="M .00000912 0 L 612 0 L 612 1008 L .00000912 1008 Z " fill-rule="evenodd"/>
</clipPath>
<g clip-path="url(#cp33)">
<text xml:space="preserve" transform="matrix(1 0 -0 1 0 1008)" font-size="9.96" font-family="Garamond"><tspan y="-734.66" x="14.016 20.75892 25.7688 30.798602 33.19896 36.10728 41.11716 43.7466 47.82024 52.86 57.05316 59.563085 63.15864 67.23228 69.513118 73.586757 78.616558">Add to any salad </tspan></text>
</g>
<clipPath id="cp34">
<path transform="matrix(1,0,0,-1,0,1008)" d="M .00000912 0 L 612 0 L 612 1008 L .00000912 1008 Z " fill-rule="evenodd"/>
</clipPath>
<g clip-path="url(#cp34)">
<text xml:space="preserve" transform="matrix(1 0 -0 1 0 1008)" font-size="9.96" font-family="Garamond"><tspan y="-734.66" x="81.24">-</tspan></text>
</g>
<clipPath id="cp35">
<path transform="matrix(1,0,0,-1,0,1008)" d="M .00000912 0 L 612 0 L 612 1008 L .00000912 1008 Z " fill-rule="evenodd"/>
</clipPath>
<g clip-path="url(#cp35)">
<text xml:space="preserve" transform="matrix(1 0 -0 1 0 1008)" font-size="9.96" font-family="Garamond"><tspan y="-734.66" x="86.88 90.226558 95.26631 99.33995 102.93551 105.84383 109.99715 115.04687 117.67631 124.030788 129.07054 131.35138 135.54454 140.21578 144.4189 149.45867">roasted Chicken </tspan></text>
</g>
<clipPath id="cp36">
<path transform="matrix(1,0,0,-1,0,1008)" d="M .00000912 0 L 612 0 L 612 1008 L .00000912 1008 Z " fill-rule="evenodd"/>
</clipPath>
<g clip-path="url(#cp36)">
<text xml:space="preserve" transform="matrix(1 0 -0 1 0 1008)" font-size="11.04" font-family="Garamond" font-weight="bold"><tspan y="-734.66" x="152.04">9</tspan></text>
</g>
<clipPath id="cp37">
<path transform="matrix(1,0,0,-1,0,1008)" d="M .00000912 0 L 612 0 L 612 1008 L .00000912 1008 Z " fill-rule="evenodd"/>
</clipPath>
<g clip-path="url(#cp37)">
<text xml:space="preserve" transform="matrix(1 0 -0 1 0 1008)" font-size="9.96" font-family="Garamond"><tspan y="-734.66" x="161.64 165.23557 169.3092 174.21949 177.1278 181.28113 185.4942 190.524 192.92436 195.2052 200.11548 207.79463 212.8344 217.87416 220.5036 225.27445 230.35405 233.69065 235.97148 243.65064">saut&#x00e9;ed jumbo Shrimp</tspan></text>
</g>
<clipPath id="cp38">
<path transform="matrix(1,0,0,-1,0,1008)" d="M .00000912 0 L 612 0 L 612 1008 L .00000912 1008 Z " fill-rule="evenodd"/>
</clipPath>
<g clip-path="url(#cp38)">
<text xml:space="preserve" transform="matrix(1 0 -0 1 0 1008)" font-size="11.04" font-family="Garamond" font-weight="bold"><tspan y="-734.66" x="251.42 255.73664 260.9144">12 </tspan></text>
</g>
<clipPath id="cp39">
<path transform="matrix(1,0,0,-1,0,1008)" d="M .00000912 0 L 612 0 L 612 1008 L .00000912 1008 Z " fill-rule="evenodd"/>
</clipPath>
<g clip-path="url(#cp39)">
<text xml:space="preserve" transform="matrix(1 0 -0 1 0 1008)" font-size="24" font-family="Garamond" font-weight="bold"><tspan y="-703.7" x="14.016 26.256 37.512 48.768 61.272005 74.520008 87.69601 97.70401">Seconds </tspan></text>
</g>
<clipPath id="cp40">
<path transform="matrix(1,0,0,-1,0,1008)" d="M .00000912 0 L 612 0 L 612 1008 L .00000912 1008 Z " fill-rule="evenodd"/>
</clipPath>
<g clip-path="url(#cp40)">
<text xml:space="preserve" transform="matrix(1 0 -0 1 0 1008)" font-size="14.04" font-family="Garamond"><tspan y="-680.78" x="14.016 22.9314 30.0918 33.30696 39.203763 45.78852 51.6432 58.873804 62.22936 73.0542 79.8636 85.718288 90.88501 96.62737 103.68949 106.90465 110.16193 113.37708 119.14752 122.50308 129.08785">Chicken Quesadilla 18</tspan></text>
</g>
<clipPath id="cp41">
<path transform="matrix(1,0,0,-1,0,1008)" d="M .00000912 0 L 612 0 L 612 1008 L .00000912 1008 Z " fill-rule="evenodd"/>
</clipPath>
<g clip-path="url(#cp41)">
<text xml:space="preserve" transform="matrix(1 0 -0 1 0 1008)" font-size="9.96" font-family="Garamond"><tspan y="-665.18" x="14.016 18.20916 23.24892 28.288681 30.56952 34.76268 38.95584 41.3562 46.39596 49.61304 52.2624 55.170724 61.744325 66.78408 69.294 72.51108 74.791919 77.072757 79.35359 81.63443 86.71403 91.13627 94.73183 96.91307 99.642108 107.321269 112.231548 115.8271 120.86686 124.21342 129.25318 134.29294 141.97209 145.57762 147.75887 150.72695 154.0735 159.11327 163.1869 166.78247 169.6908 173.84412 178.89383 181.40375 184.7503 188.94347 193.97327 196.37363 201.41339 205.60655 210.64632 215.68608 219.87924 223.2258 226.82137 229.00261 231.73166 236.77143 240.84506 245.03823 250.07799 255.11775 257.29899 260.028 265.06779 270.10755 272.3884 277.42817 282.46794 286.0635 288.93199 293.97175 297.3183 299.82823 302.10908 306.1827 308.46357 312.5372 317.57698 321.7701 326.80989 331.84965 335.44523">choice of two fillings; mushrooms, roasted red peppers, bacon, onions or jalapenos </tspan></text>
</g>
<clipPath id="cp42">
<path transform="matrix(1,0,0,-1,0,1008)" d="M .00000912 0 L 612 0 L 612 1008 L .00000912 1008 Z " fill-rule="evenodd"/>
</clipPath>
<g clip-path="url(#cp42)">
<text xml:space="preserve" transform="matrix(1 0 -0 1 0 1008)" font-size="14.04" font-family="Garamond"><tspan y="-646.22" x="14.016 20.01108 28.64568 31.86084 37.64532 43.5 50.08476 53.594758 63.09984 70.26024 76.550159 83.35956 88.48416 91.99416 100.62876 107.50836 112.183689 118.403408 124.25809 128.93341 132.31705 138.90181">*Black Angus Burger 16</tspan></text>
</g>
<clipPath id="cp43">
<path transform="matrix(1,0,0,-1,0,1008)" d="M .00000912 0 L 612 0 L 612 1008 L .00000912 1008 Z " fill-rule="evenodd"/>
</clipPath>
<g clip-path="url(#cp43)">
<text xml:space="preserve" transform="matrix(1 0 -0 1 0 1008)" font-size="9.96" font-family="Garamond"><tspan y="-630.62" x="14.016 18.089642 20.370482 22.651322 25.141322 30.22092 35.101324 38.477766 42.939844 47.093164 50.469606 54.065164 56.575086 60.170644 64.3638 67.71036 72.3816 76.58472 81.61452 84.01488 90.618358 92.89919 95.80751 100.81739 103.44683 109.074237 112.42079 116.61395 121.65371 125.84687 130.88663 133.39655 136.61363 139.99007 142.2709 146.46407 150.05963 152.24088 154.73088 157.01172 161.20488 164.1132 166.96178 171.87206 176.06522 180.25838 182.43962 184.70055 187.60887 192.61876 200.29792 204.37155 207.27988 212.28977 214.47101 217.31958 220.66614 224.73978 231.34326 233.85318 238.89295 243.93271 246.21355 251.25331 256.2931 259.16157 263.2352 268.27497 273.30479 275.8147 280.85447 283.1353 287.32847 291.9997 294.28056 298.4737 300.65495">all burgers served with French fries, lettuce, tomato, raw onion and pickle; </tspan></text>
</g>
<clipPath id="cp44">
<path transform="matrix(1,0,0,-1,0,1008)" d="M .00000912 0 L 612 0 L 612 1008 L .00000912 1008 Z " fill-rule="evenodd"/>
</clipPath>
<g clip-path="url(#cp44)">
<text xml:space="preserve" transform="matrix(1 0 -0 1 0 1008)" font-size="9.96" font-family="Garamond"><tspan y="-616.22" x="14.016 18.089642 23.119442 28.149243 30.659163 36.78456 40.848245 45.041406 50.081167 55.120927 57.302167 59.911687 68.20837 73.08877 76.72417 81.75397 85.100528 90.14028 95.18004 102.8592 106.46472 108.645969 111.73357 118.47649 126.15565 130.30896 133.6854 135.96623 140.1594 144.23303 149.2728 151.45404 154.06357 158.83441 165.47774 167.75858 171.34418 174.93975 177.12099 179.611 187.18059 191.25423 196.29399 200.36763 205.4074 209.60056 212.94712 217.98688 220.85536 224.20192 228.27556 232.46872 237.13996 239.3212 241.94069 248.29517 253.33493 257.52809 262.5579 267.5877 271.66136 275.0079 277.18916 279.79866 285.92405 288.2049 293.10523 297.29838 299.5792">add Bacon, Mushrooms, American, Swiss, Habanero Jack, Cheddar, Blue  </tspan></text>
</g>
<clipPath id="cp45">
<path transform="matrix(1,0,0,-1,0,1008)" d="M .00000912 0 L 612 0 L 612 1008 L .00000912 1008 Z " fill-rule="evenodd"/>
</clipPath>
<g clip-path="url(#cp45)">
<text xml:space="preserve" transform="matrix(1 0 -0 1 0 1008)" font-size="9.96" font-family="Garamond"><tspan y="-616.22" x="302.42">-</tspan></text>
</g>
<clipPath id="cp46">
<path transform="matrix(1,0,0,-1,0,1008)" d="M .00000912 0 L 612 0 L 612 1008 L .00000912 1008 Z " fill-rule="evenodd"/>
</clipPath>
<g clip-path="url(#cp46)">
<text xml:space="preserve" transform="matrix(1 0 -0 1 0 1008)" font-size="9.96" font-family="Garamond"><tspan y="-616.22" x="308.06 312.73124 314.91249 319.5837 324.25495 327.01387 331.207 335.28065 339.4738">2.00 each</tspan></text>
</g>
<clipPath id="cp47">
<path transform="matrix(1,0,0,-1,0,1008)" d="M .00000912 0 L 612 0 L 612 1008 L .00000912 1008 Z " fill-rule="evenodd"/>
</clipPath>
<g clip-path="url(#cp47)">
<text xml:space="preserve" transform="matrix(1 0 -0 1 0 1008)" font-size="14.04" font-family="Garamond"><tspan y="-594.86" x="14.016 22.9314 26.14656 31.888922 37.013525 42.194284 45.409444 51.306245 54.816244 63.450845 71.495769 80.13036 83.471889 95.93941 100.61473">Classic BLT Wra</tspan></text>
</g>
<clipPath id="cp48">
<path transform="matrix(1,0,0,-1,0,1008)" d="M .00000912 0 L 612 0 L 612 1008 L .00000912 1008 Z " fill-rule="evenodd"/>
</clipPath>
<g clip-path="url(#cp48)">
<text xml:space="preserve" transform="matrix(1 0 -0 1 0 1008)" font-size="15.96" font-family="Garamond"><tspan y="-594.86" x="106.44 114.600009">p </tspan></text>
</g>
<clipPath id="cp49">
<path transform="matrix(1,0,0,-1,0,1008)" d="M .00000912 0 L 612 0 L 612 1008 L .00000912 1008 Z " fill-rule="evenodd"/>
</clipPath>
<g clip-path="url(#cp49)">
<text xml:space="preserve" transform="matrix(1 0 -0 1 0 1008)" font-size="15.96" font-family="Garamond"><tspan y="-594.86" x="118.44">-</tspan></text>
</g>
<clipPath id="cp50">
<path transform="matrix(1,0,0,-1,0,1008)" d="M .00000912 0 L 612 0 L 612 1008 L .00000912 1008 Z " fill-rule="evenodd"/>
</clipPath>
<g clip-path="url(#cp50)">
<text xml:space="preserve" transform="matrix(1 0 -0 1 0 1008)" font-size="9.96" font-family="Garamond"><tspan y="-594.86" x="127.44 133.0674 136.41396 140.60712 145.64688 149.84004 154.8798 157.38973 160.60681 163.98325 166.26409 170.45725 174.05281 176.45317 178.96309">French fries   </tspan></text>
</g>
<clipPath id="cp51">
<path transform="matrix(1,0,0,-1,0,1008)" d="M .00000912 0 L 612 0 L 612 1008 L .00000912 1008 Z " fill-rule="evenodd"/>
</clipPath>
<g clip-path="url(#cp51)">
<text xml:space="preserve" transform="matrix(1 0 -0 1 0 1008)" font-size="14.04" font-family="Garamond"><tspan y="-594.86" x="181.58 188.17996">16</tspan></text>
</g>
<clipPath id="cp52">
<path transform="matrix(1,0,0,-1,0,1008)" d="M .00000912 0 L 612 0 L 612 1008 L .00000912 1008 Z " fill-rule="evenodd"/>
</clipPath>
<g clip-path="url(#cp52)">
<text xml:space="preserve" transform="matrix(1 0 -0 1 0 1008)" font-size="14.04" font-family="Garamond"><tspan y="-571.82" x="14.016 24.84084 29.51616 32.73132 35.94648 39.203763 45.05844 52.148645 55.5042 66.1746 71.931 82.755847 86.09737 91.83973 99.00013 106.10437 109.45993 118.09453 122.76985 125.98501 131.8818 134.98464 138.49463 147.12923 154.28963 165.11447 170.85683 174.95652 182.11692 185.37419 192.09935 197.8417 205.0021 212.10636">Grilled Ham and Brie, Tomato Sandw</tspan></text>
</g>
<clipPath id="cp53">
<path transform="matrix(1,0,0,-1,0,1008)" d="M .00000912 0 L 612 0 L 612 1008 L .00000912 1008 Z " fill-rule="evenodd"/>
</clipPath>
<g clip-path="url(#cp53)">
<text xml:space="preserve" transform="matrix(1 0 -0 1 0 1008)" font-size="15.96" font-family="Garamond"><tspan y="-571.82" x="221.66 225.26697 231.8744 240.014">ich </tspan></text>
</g>
<clipPath id="cp54">
<path transform="matrix(1,0,0,-1,0,1008)" d="M .00000912 0 L 612 0 L 612 1008 L .00000912 1008 Z " fill-rule="evenodd"/>
</clipPath>
<g clip-path="url(#cp54)">
<text xml:space="preserve" transform="matrix(1 0 -0 1 0 1008)" font-size="15.96" font-family="Garamond"><tspan y="-571.82" x="243.98">-</tspan></text>
</g>
<clipPath id="cp55">
<path transform="matrix(1,0,0,-1,0,1008)" d="M .00000912 0 L 612 0 L 612 1008 L .00000912 1008 Z " fill-rule="evenodd"/>
</clipPath>
<g clip-path="url(#cp55)">
<text xml:space="preserve" transform="matrix(1 0 -0 1 0 1008)" font-size="9.96" font-family="Garamond"><tspan y="-571.82" x="252.98 259.33448 261.61534 265.68898 270.72874 274.80238 277.7107 280.55928 284.6329 286.81416 289.54319 295.1706 298.51716 302.7103 307.75007 311.9432 316.98298 319.4929 322.70997 326.0864 328.36726 332.5604">Ciabatta, French fries</tspan></text>
</g>
<clipPath id="cp56">
<path transform="matrix(1,0,0,-1,0,1008)" d="M .00000912 0 L 612 0 L 612 1008 L .00000912 1008 Z " fill-rule="evenodd"/>
</clipPath>
<g clip-path="url(#cp56)">
<text xml:space="preserve" transform="matrix(1 0 -0 1 0 1008)" font-size="14.04" font-family="Garamond"><tspan y="-571.82" x="350.21 356.80995">16</tspan></text>
</g>
<clipPath id="cp57">
<path transform="matrix(1,0,0,-1,0,1008)" d="M .00000912 0 L 612 0 L 612 1008 L .00000912 1008 Z " fill-rule="evenodd"/>
</clipPath>
<g clip-path="url(#cp57)">
<text xml:space="preserve" transform="matrix(1 0 -0 1 0 1008)" font-size="14.04" font-family="Garamond"><tspan y="-548.76" x="14.016 21.92052 25.135682 30.31644 37.47684 40.87452 49.509119 55.26552 61.120199 68.33676 73.461368">Fish Tacos </tspan></text>
</g>
<clipPath id="cp58">
<path transform="matrix(1,0,0,-1,0,1008)" d="M .00000912 0 L 612 0 L 612 1008 L .00000912 1008 Z " fill-rule="evenodd"/>
</clipPath>
<g clip-path="url(#cp58)">
<text xml:space="preserve" transform="matrix(1 0 -0 1 0 1008)" font-size="15.96" font-family="Garamond"><tspan y="-548.76" x="76.92">-</tspan></text>
</g>
<clipPath id="cp59">
<path transform="matrix(1,0,0,-1,0,1008)" d="M .00000912 0 L 612 0 L 612 1008 L .00000912 1008 Z " fill-rule="evenodd"/>
</clipPath>
<g clip-path="url(#cp59)">
<text xml:space="preserve" transform="matrix(1 0 -0 1 0 1008)" font-size="9.96" font-family="Garamond"><tspan y="-548.76" x="85.92 91.5474 96.58716 101.49744 104.843997 107.35391 110.94947 115.98923 119.20631 122.114627 124.744068 127.96114 130.24199 135.3216 140.202 143.57843 146.08835 148.99668 154.00656 157.35312 160.26145 162.54228 164.79325 167.07408 171.14772 174.74329 177.2532 179.53404 184.5738 188.64745 193.67725 197.8704 202.9002 205.41013 212.01361 214.29445 217.20278 222.21266 224.72258 227.93967 230.2205 234.31407 238.9853 243.18843 245.69835 252.30184 257.3416 259.62248 262.5308 266.6841 269.21394 272.431 274.71186 278.34727 283.37705 285.5583 288.1678 292.36094 297.4007 299.68156 304.7213 309.76109 312.6694 314.95027 319.10359 321.75294 329.4321 333.50575 337.69889 342.73866">Four soft flour tortillas loaded with flaky white fish, chipotle mayo,</tspan></text>
</g>
<clipPath id="cp60">
<path transform="matrix(1,0,0,-1,0,1008)" d="M .00000912 0 L 612 0 L 612 1008 L .00000912 1008 Z " fill-rule="evenodd"/>
</clipPath>
<g clip-path="url(#cp60)">
<text xml:space="preserve" transform="matrix(1 0 -0 1 0 1008)" font-size="14.04" font-family="Garamond"><tspan y="-548.76" x="355.85 362.44996">19</tspan></text>
</g>
<clipPath id="cp61">
<path transform="matrix(1,0,0,-1,0,1008)" d="M .00000912 0 L 612 0 L 612 1008 L .00000912 1008 Z " fill-rule="evenodd"/>
</clipPath>
<g clip-path="url(#cp61)">
<text xml:space="preserve" transform="matrix(1 0 -0 1 0 1008)" font-size="9.96" font-family="Garamond"><tspan y="-532.56" x="14.016 16.29684 20.490002 23.398322 26.246882 31.157162 35.350324 39.543485 41.724725 43.985647 47.581205 51.654844 53.935686 57.531244 61.604887 64.23433 69.86173 73.20829 77.40145 80.99701 85.19017 89.26381 91.66417 98.97481 101.37517 104.970729 110.01048 114.92076 118.26732 120.89676 125.08992 128.43648 132.62964 136.70328">lettuce, salsa Fresca &#x0026; sour cream</tspan></text>
</g>
<clipPath id="cp62">
<path transform="matrix(1,0,0,-1,0,1008)" d="M .00000912 0 L 612 0 L 612 1008 L .00000912 1008 Z " fill-rule="evenodd"/>
</clipPath>
<g clip-path="url(#cp62)">
<text xml:space="preserve" transform="matrix(1 0 -0 1 0 1008)" font-size="14.04" font-family="Garamond"><tspan y="-511.32" x="14.016 21.92052 26.59584 29.83908 35.69376 42.783964 46.13952 55.05492 62.21532 65.43048 71.327289 77.91205 83.76673 90.99733">Fried Chicken </tspan></text>
</g>
<clipPath id="cp63">
<path transform="matrix(1,0,0,-1,0,1008)" d="M .00000912 0 L 612 0 L 612 1008 L .00000912 1008 Z " fill-rule="evenodd"/>
</clipPath>
<g clip-path="url(#cp63)">
<text xml:space="preserve" transform="matrix(1 0 -0 1 0 1008)" font-size="15.96" font-family="Garamond"><tspan y="-511.32" x="94.44">-</tspan></text>
</g>
<clipPath id="cp64">
<path transform="matrix(1,0,0,-1,0,1008)" d="M .00000912 0 L 612 0 L 612 1008 L .00000912 1008 Z " fill-rule="evenodd"/>
</clipPath>
<g clip-path="url(#cp64)">
<text xml:space="preserve" transform="matrix(1 0 -0 1 0 1008)" font-size="9.96" font-family="Garamond"><tspan y="-511.32" x="103.44 109.067409 112.41396 116.607128 121.64688 125.84004 130.8798 133.38973 136.60681 139.98325 142.26409 146.45725 150.05281">French fries </tspan></text>
</g>
<clipPath id="cp65">
<path transform="matrix(1,0,0,-1,0,1008)" d="M .00000912 0 L 612 0 L 612 1008 L .00000912 1008 Z " fill-rule="evenodd"/>
</clipPath>
<g clip-path="url(#cp65)">
<text xml:space="preserve" transform="matrix(1 0 -0 1 0 1008)" font-size="14.04" font-family="Garamond"><tspan y="-511.32" x="168.6 175.19997">21</tspan></text>
</g>
<clipPath id="cp66">
<path transform="matrix(1,0,0,-1,0,1008)" d="M .00000912 0 L 612 0 L 612 1008 L .00000912 1008 Z " fill-rule="evenodd"/>
</clipPath>
<g clip-path="url(#cp66)">
<text xml:space="preserve" transform="matrix(1 0 -0 1 0 1008)" font-size="15.96" font-family="Garamond"><tspan y="-488.28" x="14.016 23.00148 26.65632 32.48172 40.621324 44.611326 56.246168 60.236169 70.29096 78.430568 82.0854 90.225009 96.05041 100.15212 104.14212 108.068279">Fish &#x0026; Chips    </tspan></text>
</g>
<clipPath id="cp67">
<path transform="matrix(1,0,0,-1,0,1008)" d="M .00000912 0 L 612 0 L 612 1008 L .00000912 1008 Z " fill-rule="evenodd"/>
</clipPath>
<g clip-path="url(#cp67)">
<text xml:space="preserve" transform="matrix(1 0 -0 1 0 1008)" font-size="14.04" font-family="Garamond"><tspan y="-488.28" x="112.2 118.79996">21</tspan></text>
</g>
<clipPath id="cp68">
<path transform="matrix(1,0,0,-1,0,1008)" d="M .00000912 0 L 612 0 L 612 1008 L .00000912 1008 Z " fill-rule="evenodd"/>
</clipPath>
<g clip-path="url(#cp68)">
<text xml:space="preserve" transform="matrix(1 0 -0 1 0 1008)" font-size="14.04" font-family="Garamond"><tspan y="-465.24" x="14.016 22.9314 30.0918 33.30696 39.203763 45.78852 51.6432 58.873804 62.22936 69.29148 72.80148 79.52664 86.68704 91.362369 94.57752 105.40236 112.59084 115.83408 119.344089 127.248607 132.97692 137.65224 148.47708 151.69225 157.94005 161.15522 166.92566 174.08606 179.87055">Chicken / Shrimp  Parmigiana </tspan></text>
</g>
<clipPath id="cp69">
<path transform="matrix(1,0,0,-1,0,1008)" d="M .00000912 0 L 612 0 L 612 1008 L .00000912 1008 Z " fill-rule="evenodd"/>
</clipPath>
<g clip-path="url(#cp69)">
<text xml:space="preserve" transform="matrix(1 0 -0 1 0 1008)" font-size="15.96" font-family="Garamond"><tspan y="-465.24" x="183.26">&#x2013;</tspan></text>
</g>
<clipPath id="cp70">
<path transform="matrix(1,0,0,-1,0,1008)" d="M .00000912 0 L 612 0 L 612 1008 L .00000912 1008 Z " fill-rule="evenodd"/>
</clipPath>
<g clip-path="url(#cp70)">
<text xml:space="preserve" transform="matrix(1 0 -0 1 0 1008)" font-size="9.96" font-family="Garamond"><tspan y="-465.24" x="195.26 198.85556 203.89533 207.96897 212.43105 217.4509 221.64406 224.55239 227.40096 229.6818 232.43076 240.10991 244.18355 247.5301 249.81095 254.85071 258.92436 262.2709 266.34455 269.0935 271.60343">spaghetti marinara   </tspan></text>
</g>
<clipPath id="cp71">
<path transform="matrix(1,0,0,-1,0,1008)" d="M .00000912 0 L 612 0 L 612 1008 L .00000912 1008 Z " fill-rule="evenodd"/>
</clipPath>
<g clip-path="url(#cp71)">
<text xml:space="preserve" transform="matrix(1 0 -0 1 0 1008)" font-size="15.96" font-family="Garamond"><tspan y="-465.24" x="274.22 281.70524 289.0947 293.1645 301.19239 305.18238 312.5878">24 / 26</tspan></text>
</g>
<clipPath id="cp72">
<path transform="matrix(1,0,0,-1,0,1008)" d="M .00000912 0 L 612 0 L 612 1008 L .00000912 1008 Z " fill-rule="evenodd"/>
</clipPath>
<g clip-path="url(#cp72)">
<text xml:space="preserve" transform="matrix(1 0 -0 1 0 1008)" font-size="14.04" font-family="Garamond"><tspan y="-444.6" x="14.016 21.92052 27.775202 35.005807 42.166208 48.077047 51.320283 57.062646 60.277807 66.04824 69.62844 79.13352 86.29392 93.37008 99.95484 105.71124">Penne ala Vodka </tspan></text>
</g>
<clipPath id="cp73">
<path transform="matrix(1,0,0,-1,0,1008)" d="M .00000912 0 L 612 0 L 612 1008 L .00000912 1008 Z " fill-rule="evenodd"/>
</clipPath>
<g clip-path="url(#cp73)">
<text xml:space="preserve" transform="matrix(1 0 -0 1 0 1008)" font-size="14.04" font-family="Garamond"><tspan y="-444.6" x="109.2">&#x2013;</tspan></text>
</g>
<clipPath id="cp74">
<path transform="matrix(1,0,0,-1,0,1008)" d="M .00000912 0 L 612 0 L 612 1008 L .00000912 1008 Z " fill-rule="evenodd"/>
</clipPath>
<g clip-path="url(#cp74)">
<text xml:space="preserve" transform="matrix(1 0 -0 1 0 1008)" font-size="14.04" font-family="Garamond"><tspan y="-444.6" x="119.64 128.5554 135.7158 138.93097 144.82776 151.41252 157.2672 164.4978 167.85337 174.43813 181.02289 184.6452 188.1552 191.60903 198.33419 205.49459 210.1699 213.44124 224.26609 231.42649 234.79608 241.38085">Chicken 24   Shrimp 26</tspan></text>
</g>
<clipPath id="cp75">
<path transform="matrix(1,0,0,-1,0,1008)" d="M .00000912 0 L 612 0 L 612 1008 L .00000912 1008 Z " fill-rule="evenodd"/>
</clipPath>
<g clip-path="url(#cp75)">
<text xml:space="preserve" transform="matrix(1 0 -0 1 0 1008)" font-size="14.04" font-family="Garamond"><tspan y="-424.44" x="14.016 20.741162 27.901562 33.686044 39.919805 47.080205 52.991044 57.090726 61.190408 64.40556 67.87344 76.50804 83.696529 86.91168 94.12824 100.362 107.5224 113.43324 118.557849 124.45465 127.69789 134.28266">Spaghetti Bolognese 24</tspan></text>
</g>
<clipPath id="cp76">
<path transform="matrix(1,0,0,-1,0,1008)" d="M .00000912 0 L 612 0 L 612 1008 L .00000912 1008 Z " fill-rule="evenodd"/>
</clipPath>
<g clip-path="url(#cp76)">
<text fill="#2c2c2c" xml:space="preserve" transform="matrix(1 0 -0 1 0 1008)" font-size="14.04" font-family="Garamond"><tspan y="-401.88" x="14.016 22.791 26.00616 32.29608 37.996324 42.096006 49.256406 56.487009 59.702169 63.085805 72.450489 75.66564 79.76532 86.92572 90.43572 99.07032 103.74564 110.948169 116.80285 122.69965 129.86006 133.1314 136.34656">Rigatoni with Broccoli </tspan></text>
</g>
<clipPath id="cp77">
<path transform="matrix(1,0,0,-1,0,1008)" d="M .00000912 0 L 612 0 L 612 1008 L .00000912 1008 Z " fill-rule="evenodd"/>
</clipPath>
<g clip-path="url(#cp77)">
<text fill="#2c2c2c" xml:space="preserve" transform="matrix(1 0 -0 1 0 1008)" font-size="14.04" font-family="Garamond"><tspan y="-401.88" x="139.8 148.575 154.30332 161.46372">Rabe</tspan></text>
</g>
<clipPath id="cp78">
<path transform="matrix(1,0,0,-1,0,1008)" d="M .00000912 0 L 612 0 L 612 1008 L .00000912 1008 Z " fill-rule="evenodd"/>
</clipPath>
<g clip-path="url(#cp78)">
<text fill="#2c2c2c" xml:space="preserve" transform="matrix(1 0 -0 1 0 1008)" font-size="14.04" font-family="Garamond"><tspan y="-401.88" x="170.76 177.48516 183.22751 190.1071 195.2317 200.97406 207.20781 213.06249 216.67076 223.73288 227.08844 236.00385 243.16425 246.42153 252.2762 258.86097 264.7718">Sausage / Chicken</tspan></text>
</g>
<clipPath id="cp79">
<path transform="matrix(1,0,0,-1,0,1008)" d="M .00000912 0 L 612 0 L 612 1008 L .00000912 1008 Z " fill-rule="evenodd"/>
</clipPath>
<g clip-path="url(#cp79)">
<text fill="#2c2c2c" xml:space="preserve" transform="matrix(1 0 -0 1 0 1008)" font-size="15.96" font-family="Garamond"><tspan y="-401.88" x="275.9">-</tspan></text>
</g>
<clipPath id="cp80">
<path transform="matrix(1,0,0,-1,0,1008)" d="M .00000912 0 L 612 0 L 612 1008 L .00000912 1008 Z " fill-rule="evenodd"/>
</clipPath>
<g clip-path="url(#cp80)">
<text fill="#2c2c2c" xml:space="preserve" transform="matrix(1 0 -0 1 0 1008)" font-size="9.96" font-family="Garamond"><tspan y="-401.88" x="284.9 289.36207 293.40583 296.7723 299.05317 301.334 305.52717 308.03709 312.11073 317.15049 322.1803 324.80973 327.21009 332.24986 334.5307 336.81156 341.4828 345.67594 348.18586 353.22563 355.50648 357.78733 360.2773 362.8171 365.32704 367.83695">garlic and  olive oil     </tspan></text>
</g>
<clipPath id="cp81">
<path transform="matrix(1,0,0,-1,0,1008)" d="M .00000912 0 L 612 0 L 612 1008 L .00000912 1008 Z " fill-rule="evenodd"/>
</clipPath>
<g clip-path="url(#cp81)">
<text fill="#2c2c2c" xml:space="preserve" transform="matrix(1 0 -0 1 0 1008)" font-size="14.04" font-family="Garamond"><tspan y="-401.88" x="370.49 377.08998">24</tspan></text>
</g>
<clipPath id="cp82">
<path transform="matrix(1,0,0,-1,0,1008)" d="M .00000912 0 L 612 0 L 612 1008 L .00000912 1008 Z " fill-rule="evenodd"/>
</clipPath>
<g clip-path="url(#cp82)">
<text xml:space="preserve" transform="matrix(1 0 -0 1 0 1008)" font-size="14.04" font-family="Garamond"><tspan y="-378.84" x="14.016 21.92052 27.676922 34.837324 38.235 47.010004 54.170404 59.940847 65.065448 69.16512 75.019809 82.12405 85.47961 93.384128 100.58665 105.26197 111.84673 115.23038 123.864978 129.71965 136.93622 143.99834 149.85301 154.52834 157.78562 164.94602 168.21735 175.37775 178.53675">Pan Roasted Pork Tenderloin  </tspan></text>
</g>
<clipPath id="cp83">
<path transform="matrix(1,0,0,-1,0,1008)" d="M .00000912 0 L 612 0 L 612 1008 L .00000912 1008 Z " fill-rule="evenodd"/>
</clipPath>
<g clip-path="url(#cp83)">
<text xml:space="preserve" transform="matrix(1 0 -0 1 0 1008)" font-size="14.04" font-family="Garamond"><tspan y="-378.84" x="190.22 196.81996">26</tspan></text>
</g>
<clipPath id="cp84">
<path transform="matrix(1,0,0,-1,0,1008)" d="M .00000912 0 L 612 0 L 612 1008 L .00000912 1008 Z " fill-rule="evenodd"/>
</clipPath>
<g clip-path="url(#cp84)">
<text xml:space="preserve" transform="matrix(1 0 -0 1 0 1008)" font-size="9.96" font-family="Garamond"><tspan y="-362.74" x="14.016 21.69516 26.60544 30.201 33.10932 37.153085 40.509607 45.539407 48.049329 52.24249 55.58905 59.78221 67.46137 71.65453 74.05489 77.65045 81.72409 86.63437 90.82753 95.02069 97.201938 99.69193 107.37109 111.4547 115.050258 120.09001 124.28317 129.31298 131.82289 136.86266 141.90242 144.81075 148.8545 151.76284 156.78269 159.65117 163.72481 168.76457 173.79438 176.30429 180.97553 185.17865 189.64073 193.79405 196.70238 200.76605 205.80582 208.08666 212.27982">mustard cr&#x00e8;me sauce, mashed potato and vegetables</tspan></text>
</g>
<clipPath id="cp85">
<path transform="matrix(1,0,0,-1,0,1008)" d="M .00000912 0 L 612 0 L 612 1008 L .00000912 1008 Z " fill-rule="evenodd"/>
</clipPath>
<g clip-path="url(#cp85)">
<text xml:space="preserve" transform="matrix(1 0 -0 1 0 1008)" font-size="14.04" font-family="Garamond"><tspan y="-343.78" x="14.016 22.9314 30.0918 33.30696 39.203763 45.78852 51.6432 58.873804 62.22936 73.98084 77.196 80.45328 86.19564 93.35604 99.266887 104.39149 110.28829 113.53153 117.041538 120.59366 124.10366 130.68842">Chicken Milanese    25</tspan></text>
</g>
<clipPath id="cp86">
<path transform="matrix(1,0,0,-1,0,1008)" d="M .00000912 0 L 612 0 L 612 1008 L .00000912 1008 Z " fill-rule="evenodd"/>
</clipPath>
<g clip-path="url(#cp86)">
<text xml:space="preserve" transform="matrix(1 0 -0 1 0 1008)" font-size="9.96" font-family="Garamond"><tspan y="-328.18" x="14.016 19.05576 23.1294 28.169159 32.8404 37.89012 40.758604 45.798364 49.872007">panko pan</tspan></text>
</g>
<clipPath id="cp87">
<path transform="matrix(1,0,0,-1,0,1008)" d="M .00000912 0 L 612 0 L 612 1008 L .00000912 1008 Z " fill-rule="evenodd"/>
</clipPath>
<g clip-path="url(#cp87)">
<text xml:space="preserve" transform="matrix(1 0 -0 1 0 1008)" font-size="9.96" font-family="Garamond"><tspan y="-328.18" x="54.96">-</tspan></text>
</g>
<clipPath id="cp88">
<path transform="matrix(1,0,0,-1,0,1008)" d="M .00000912 0 L 612 0 L 612 1008 L .00000912 1008 Z " fill-rule="evenodd"/>
</clipPath>
<g clip-path="url(#cp88)">
<text xml:space="preserve" transform="matrix(1 0 -0 1 0 1008)" font-size="9.96" font-family="Garamond"><tspan y="-328.18" x="58.08 61.29708 64.67352 66.95436 71.14752 76.17732 78.35857 80.96809 83.8764 88.886287 93.92604 98.9658 103.15896 108.18876 110.8182 117.42168 119.702518 122.61083 127.62071 130.25016 138.54683 142.72006 147.74987 150.0307 152.93903 157.09235 160.45883 163.80539 167.87903 172.9188 177.11196 181.1856 186.22536 188.73528 192.33084 196.40448 198.68532 202.75896 207.78876 210.4182 217.02169 222.05149 225.26857 229.48165 232.38997 236.43373">fried, topped with Mediterranean salad w/feta </tspan></text>
</g>
<clipPath id="cp89">
<path transform="matrix(1,0,0,-1,0,1008)" d="M .00000912 0 L 612 0 L 612 1008 L .00000912 1008 Z " fill-rule="evenodd"/>
</clipPath>
<g clip-path="url(#cp89)">
<text xml:space="preserve" transform="matrix(1 0 -0 1 0 1008)" font-size="14.04" font-family="Garamond"><tspan y="-309.22" x="14.016 25.76748 31.50984 38.670244 41.941564 47.79624 51.06756 54.28272 60.17952 65.92188 70.4568 73.966808 78.501728 84.27216 88.94749 99.77232">Maple leaf farms</tspan></text>
</g>
<clipPath id="cp90">
<path transform="matrix(1,0,0,-1,0,1008)" d="M .00000912 0 L 612 0 L 612 1008 L .00000912 1008 Z " fill-rule="evenodd"/>
</clipPath>
<g clip-path="url(#cp90)">
<text xml:space="preserve" transform="matrix(1 0 -0 1 0 1008)" font-size="14.04" font-family="Garamond"><tspan y="-309.22" x="108.24 119.064838 125.87424 131.72891 138.31368 141.93599 145.44599 148.89981 152.4098 158.99457">Duck    29</tspan></text>
</g>
<clipPath id="cp91">
<path transform="matrix(1,0,0,-1,0,1008)" d="M .00000912 0 L 612 0 L 612 1008 L .00000912 1008 Z " fill-rule="evenodd"/>
</clipPath>
<g clip-path="url(#cp91)">
<text xml:space="preserve" transform="matrix(1 0 -0 1 0 1008)" font-size="9.96" font-family="Garamond"><tspan y="-293.62" x="15.216 22.89516 26.968802 30.564362 35.604124 39.797285 44.827085 47.456525 52.496286 57.536046 60.444368 64.48813 67.39645 72.41628 75.16524 82.475879 84.985797 89.657039 93.86015 98.322238 102.475559 105.38387 109.447559 114.48731 116.76815 120.96131 124.55687 126.73811 129.22812 132.58464 136.7778 141.8076 144.20796 150.81145 153.09229 158.13205 162.32521 164.83513 168.18169 172.37485 177.40465 182.31493 186.50809 189.41641 191.69725 196.70714 201.7469">mashed potato &#x0026; vegetables, red wine reduction </tspan></text>
</g>
<clipPath id="cp92">
<path transform="matrix(1,0,0,-1,0,1008)" d="M .00000912 0 L 612 0 L 612 1008 L .00000912 1008 Z " fill-rule="evenodd"/>
</clipPath>
<g clip-path="url(#cp92)">
<text xml:space="preserve" transform="matrix(1 0 -0 1 0 1008)" font-size="14.04" font-family="Garamond"><tspan y="-274.66" x="14.016 22.6506 29.83908 35.69376 42.57336 47.10828 50.47788 59.11248 66.300968 73.180568 77.85589 84.06156 90.94116 94.15632 100.37604 107.53644 114.76704 121.92744 125.2128 128.7228 132.17662 135.75682 142.34159">Boeuf Bourguignon    28</tspan></text>
</g>
<clipPath id="cp93">
<path transform="matrix(1,0,0,-1,0,1008)" d="M .00000912 0 L 612 0 L 612 1008 L .00000912 1008 Z " fill-rule="evenodd"/>
</clipPath>
<g clip-path="url(#cp93)">
<text xml:space="preserve" transform="matrix(1 0 -0 1 0 1008)" font-size="9.96" font-family="Garamond"><tspan y="-259.06" x="14.016 16.92432 21.07764 26.157242 31.167122 35.360284 38.706846 41.107206 46.146966 51.186727 54.095048 56.694608 60.04117 65.080928 69.154567 72.75012 75.65844 77.78988 80.53883 85.210079 89.41319 93.875278 98.028598 100.93691 105.000598 110.04035 112.32119 116.51435 120.10991 122.61983 129.93047 132.33083 140.00998 144.08362 147.67919 152.71895 156.91211 161.94191 164.57135 169.61112 174.65088 177.5592 181.60297 184.51129 189.53115 193.7243">tender pot roast, vegetables &#x0026; mashed potatoes</tspan></text>
</g>
<clipPath id="cp94">
<path transform="matrix(1,0,0,-1,0,1008)" d="M .00000912 0 L 612 0 L 612 1008 L .00000912 1008 Z " fill-rule="evenodd"/>
</clipPath>
<g clip-path="url(#cp94)">
<text xml:space="preserve" transform="matrix(1 0 -0 1 0 1008)" font-size="14.04" font-family="Garamond"><tspan y="-240.1" x="14.016 21.92052 26.59584 32.4786 37.6032 44.81976">Fresh </tspan></text>
</g>
<clipPath id="cp95">
<path transform="matrix(1,0,0,-1,0,1008)" d="M .00000912 0 L 612 0 L 612 1008 L .00000912 1008 Z " fill-rule="evenodd"/>
</clipPath>
<g clip-path="url(#cp95)">
<text xml:space="preserve" transform="matrix(1 0 -0 1 0 1008)" font-size="14.04" font-family="Garamond"><tspan y="-240.1" x="48.12 56.7546 62.511 68.74476 71.959918 75.21719 80.95956 85.059238 90.91392 94.129077 97.38635">Tagliatelle</tspan></text>
</g>
<clipPath id="cp96">
<path transform="matrix(1,0,0,-1,0,1008)" d="M .00000912 0 L 612 0 L 612 1008 L .00000912 1008 Z " fill-rule="evenodd"/>
</clipPath>
<g clip-path="url(#cp96)">
<text xml:space="preserve" transform="matrix(1 0 -0 1 0 1008)" font-size="14.04" font-family="Garamond"><tspan y="-240.1" x="110.4 116.99996 123.59992">28 </tspan></text>
</g>
<clipPath id="cp97">
<path transform="matrix(1,0,0,-1,0,1008)" d="M .00000912 0 L 612 0 L 612 1008 L .00000912 1008 Z " fill-rule="evenodd"/>
</clipPath>
<g clip-path="url(#cp97)">
<text xml:space="preserve" transform="matrix(1 0 -0 1 0 1008)" font-size="9.96" font-family="Garamond"><tspan y="-224.5" x="14.016 16.29684 21.20712 28.88628 33.92604 38.9658 41.59524 45.1908 50.23056 53.57712 55.857965 63.537126 68.57688 70.75812 73.606678 76.95323 81.99299 86.06663 89.662189 92.5705 96.72382 101.773548 104.28346 107.63002 111.82318 116.85298 119.25334 124.2931 128.48625 133.52602 138.56578 142.75894 146.1055 149.70107 151.88231 154.61136 158.20693 163.24669 165.52753 170.56729 174.64093 178.83409 183.87386 186.0551 188.78415 192.97731 196.32387 200.51703 204.59067 212.26982 214.77974 218.3753 222.44895 227.35923 231.55239 235.74555">jumbo shrimp, roasted red peppers, spinach, cream sauce </tspan></text>
</g>
<clipPath id="cp98">
<path transform="matrix(1,0,0,-1,0,1008)" d="M .00000912 0 L 612 0 L 612 1008 L .00000912 1008 Z " fill-rule="evenodd"/>
</clipPath>
<g clip-path="url(#cp98)">
<text xml:space="preserve" transform="matrix(1 0 -0 1 0 1008)" font-size="14.04" font-family="Garamond"><tspan y="-205.54" x="14.016 21.92052 27.676922 32.35224 39.54072 45.3954 48.779039 53.69304 58.81764 62.07492 67.81728 74.977687 82.081928 87.20653 90.60421 97.32937 103.07173 106.28689 117.111728 124.272129 131.50273 134.74597 138.25597 141.80808 145.31807 151.90283">Faroe Islands Salmon    29</tspan></text>
</g>
<clipPath id="cp99">
<path transform="matrix(1,0,0,-1,0,1008)" d="M .00000912 0 L 612 0 L 612 1008 L .00000912 1008 Z " fill-rule="evenodd"/>
</clipPath>
<g clip-path="url(#cp99)">
<text xml:space="preserve" transform="matrix(1 0 -0 1 0 1008)" font-size="9.96" font-family="Garamond"><tspan y="-189.94" x="14.016 21.69516 25.7688 29.36436 34.40412 38.597284 43.627084 46.256525 51.296285 56.336046 59.244367 63.288125 66.19644 71.21628 75.40944 79.005 81.18623 83.91527 88.58651 92.78963 97.25171 101.40503 104.31335 108.37703 113.41679 115.697628 119.890789 123.48634 125.66759">mashed potatoes, vegetables, </tspan></text>
</g>
<clipPath id="cp100">
<path transform="matrix(1,0,0,-1,0,1008)" d="M .00000912 0 L 612 0 L 612 1008 L .00000912 1008 Z " fill-rule="evenodd"/>
</clipPath>
<g clip-path="url(#cp100)">
<text xml:space="preserve" transform="matrix(1 0 -0 1 0 1008)" font-size="9.96" font-family="Garamond"><tspan y="-189.94" x="128.4 133.43976 137.63292 142.5432 145.88976 149.23632">beurre</tspan></text>
</g>
<clipPath id="cp101">
<path transform="matrix(1,0,0,-1,0,1008)" d="M .00000912 0 L 612 0 L 612 1008 L .00000912 1008 Z " fill-rule="evenodd"/>
</clipPath>
<g clip-path="url(#cp101)">
<text xml:space="preserve" transform="matrix(1 0 -0 1 0 1008)" font-size="9.96" font-family="Garamond"><tspan y="-189.94" x="155.88 160.91977 163.2006 167.27425 172.31401 176.50717 179.13661 182.73218 186.80582 191.7161 195.90926">blanc sauce</tspan></text>
</g>
<clipPath id="cp102">
<path transform="matrix(1,0,0,-1,0,1008)" d="M .00000912 0 L 612 0 L 612 1008 L .00000912 1008 Z " fill-rule="evenodd"/>
</clipPath>
<g clip-path="url(#cp102)">
<text xml:space="preserve" transform="matrix(1 0 -0 1 0 1008)" font-size="14.04" font-family="Garamond"><tspan y="-170.95" x="14.016 25.76748 36.592325 39.93384 48.568445 51.783605 58.663206 64.51788 68.027889 76.88712 81.56245 87.31885 94.47925 97.87693 106.65193 112.38026 118.96502 122.180179 129.41078 132.62595 135.88323 139.39322 142.84705 149.43181">MD Blue Crab Ravioli  24</tspan></text>
</g>
<clipPath id="cp103">
<path transform="matrix(1,0,0,-1,0,1008)" d="M .00000912 0 L 612 0 L 612 1008 L .00000912 1008 Z " fill-rule="evenodd"/>
</clipPath>
<g clip-path="url(#cp103)">
<text xml:space="preserve" transform="matrix(1 0 -0 1 0 1008)" font-size="9.96" font-family="Garamond"><tspan y="-155.35" x="14.016 17.36256 19.6434 23.836562 28.87632 31.78464 34.633199 38.706838 40.888078 43.497598 46.84416 51.03732 56.06712 58.46748 63.50724 67.7004 72.74016 77.779918 81.973079 85.31963 87.50087 90.11039 93.01871 98.02859 105.70775 109.78139 112.689708 117.699588 120.56806 124.76122 128.10778 132.30094 136.37458 144.05373 146.45409 150.04965 154.12329 159.03357 163.22673 167.41989">ricotta, red pepper, tomato cream sauce </tspan></text>
</g>
<clipPath id="cp104">
<path transform="matrix(1,0,0,-1,0,1008)" d="M .00000912 0 L 612 0 L 612 1008 L .00000912 1008 Z " fill-rule="evenodd"/>
</clipPath>
<g clip-path="url(#cp104)">
<text xml:space="preserve" transform="matrix(1 0 -0 1 0 1008)" font-size="14.04" font-family="Garamond"><tspan y="-136.39" x="14.016 20.01108 28.64568 35.8482 43.008604 48.91944 52.1346 58.031404 63.156003 68.33676 71.58 80.355 83.57016 90.77268 96.627368 102.52417 108.37885 111.888858 118.61401 122.71369 128.56838 134.31073 140.8955 144.48973 150.23209 157.11168">*Boneless Ribeye Steak au </tspan></text>
</g>
<clipPath id="cp105">
<path transform="matrix(1,0,0,-1,0,1008)" d="M .00000912 0 L 612 0 L 612 1008 L .00000912 1008 Z " fill-rule="evenodd"/>
</clipPath>
<g clip-path="url(#cp105)">
<text xml:space="preserve" transform="matrix(1 0 -0 1 0 1008)" font-size="14.04" font-family="Garamond"><tspan y="-136.39" x="160.68 168.58452 175.78704 179.0022 185.58696 190.29036">Poivre</tspan></text>
</g>
<clipPath id="cp106">
<path transform="matrix(1,0,0,-1,0,1008)" d="M .00000912 0 L 612 0 L 612 1008 L .00000912 1008 Z " fill-rule="evenodd"/>
</clipPath>
<g clip-path="url(#cp106)">
<text xml:space="preserve" transform="matrix(1 0 -0 1 0 1008)" font-size="14.04" font-family="Garamond"><tspan y="-136.39" x="210.02 216.61997">36</tspan></text>
</g>
<clipPath id="cp107">
<path transform="matrix(1,0,0,-1,0,1008)" d="M .00000912 0 L 612 0 L 612 1008 L .00000912 1008 Z " fill-rule="evenodd"/>
</clipPath>
<g clip-path="url(#cp107)">
<text xml:space="preserve" transform="matrix(1 0 -0 1 0 1008)" font-size="9.96" font-family="Garamond"><tspan y="-120.79" x="14.016 21.69516 25.7688 29.36436 34.40412 38.597284 43.627084 46.256525 51.296285 56.336046 59.244367 63.288125 66.19644 71.21628 75.40944 79.005 81.18623 83.91527 88.58651 92.78963 97.25171 101.40503 104.31335 108.37703 113.41679 115.697628 119.890789 123.48634 125.66759 128.27712 132.7392 136.05588 140.26895 144.46212 149.50188 152.0118 157.05156 161.24472 166.28449 171.32425 175.51741 178.86397 183.05713 188.0969 191.44345 196.48322 199.23218 202.82775 206.90139 211.81166 216.00482">mashed potatoes, vegetables, green peppercorn sauce</tspan></text>
</g>
<clipPath id="cp108">
<path transform="matrix(1,0,0,-1,0,1008)" d="M .00000912 0 L 612 0 L 612 1008 L .00000912 1008 Z " fill-rule="evenodd"/>
</clipPath>
<g clip-path="url(#cp108)">
<text xml:space="preserve" transform="matrix(1 0 -0 1 0 1008)" font-size="14.04" font-family="Garamond"><tspan y="-101.83" x="14.016 23.22624 29.516161 35.735879 42.89628 46.1676 51.90996 59.070363 63.170045">Eggplant </tspan></text>
</g>
<clipPath id="cp109">
<path transform="matrix(1,0,0,-1,0,1008)" d="M .00000912 0 L 612 0 L 612 1008 L .00000912 1008 Z " fill-rule="evenodd"/>
</clipPath>
<g clip-path="url(#cp109)">
<text xml:space="preserve" transform="matrix(1 0 -0 1 0 1008)" font-size="14.04" font-family="Garamond"><tspan y="-101.83" x="66.72 75.495 82.6554 85.91268 89.12784 94.89828 98.997959 102.21311 109.401599">Rollatini</tspan></text>
</g>
<clipPath id="cp110">
<path transform="matrix(1,0,0,-1,0,1008)" d="M .00000912 0 L 612 0 L 612 1008 L .00000912 1008 Z " fill-rule="evenodd"/>
</clipPath>
<g clip-path="url(#cp110)">
<text xml:space="preserve" transform="matrix(1 0 -0 1 0 1008)" font-size="14.04" font-family="Garamond"><tspan y="-101.83" x="126.48 133.07996">25</tspan></text>
</g>
<clipPath id="cp111">
<path transform="matrix(1,0,0,-1,0,1008)" d="M .00000912 0 L 612 0 L 612 1008 L .00000912 1008 Z " fill-rule="evenodd"/>
</clipPath>
<g clip-path="url(#cp111)">
<text xml:space="preserve" transform="matrix(1 0 -0 1 0 1008)" font-size="9.96" font-family="Garamond"><tspan y="-86.232" x="14.016 17.36256 19.6434 23.836562 28.87632 31.78464 34.633199 38.706838 40.888078 43.497598 47.093156 52.132917 54.413759 59.453519 63.527158 67.72032 72.76008 74.941318 77.67035 85.34951 89.54267 91.82351 94.73183 98.88515 103.93487 106.33523 110.52839 115.568149 119.76131 123.95447 127.550029 131.74318 133.92443 136.30487 139.2132 144.22309 151.90224 155.97588 158.8842 163.89409 166.64305 170.23862 174.31226 179.22254 183.4157 187.60886 189.7901 192.17055 195.76612 200.80588 204.87952 209.3416 214.36145 218.55461 221.46294 224.31151 226.59235">ricotta, spinach, melted cheese, tomato sauce, spaghetti </tspan></text>
</g>
<clipPath id="cp112">
<path transform="matrix(1,0,0,-1,0,1008)" d="M .00000912 0 L 612 0 L 612 1008 L .00000912 1008 Z " fill-rule="evenodd"/>
</clipPath>
<g clip-path="url(#cp112)">
<text xml:space="preserve" transform="matrix(1 0 -0 1 0 1008)" font-size="8.04" font-family="Garamond"><tspan y="-62.592" x="14.016 18.93648 22.28916 24.92628 29.02668 31.64772 35.0004 37.04256 41.14296 42.9198 46.15992 49.5126 51.321599 55.421998 59.02392 61.275117 64.62779 68.728199 72.66779 75.31296 77.23452 81.33492 83.95596 88.0242 91.37688 94.02204 95.81496 97.73652 101.83692 103.61376 106.966449 110.23068 113.092929 116.4456 118.60837 120.40933 124.509738 127.10666 131.20706 133.85222 140.08322 142.11734 145.47002 149.57042 153.51003 156.15518 158.07674 160.95507 164.30774 166.9529 170.67543 174.0281 176.67327 178.70738 180.50833 183.13742 185.17154 188.41165 190.44577 194.54618 197.89885 200.52794 203.40627 207.50667 211.56687 213.72158 215.52252 219.62293 221.63292 224.9856 229.086 233.0256 235.70293 237.71292 241.81333 245.0454 247.68251 250.07843 253.4311 255.47327 259.57368 262.78968 265.668 267.70213 270.94227 272.86384 275.49293 279.59333 283.65354 287.72178 289.7559 292.99604 294.797 296.59797 299.95066 302.5958 306.19773">Before placing your order, please inform your server if a person in your party has a food allergy</tspan></text>
</g>
<clipPath id="cp113">
<path transform="matrix(1,0,0,-1,0,1008)" d="M .00000912 0 L 612 0 L 612 1008 L .00000912 1008 Z " fill-rule="evenodd"/>
</clipPath>
<g clip-path="url(#cp113)">
<text xml:space="preserve" transform="matrix(1 0 -0 1 0 1008)" font-size="8.04" font-family="TimesNewRomanPSMT"><tspan y="-62.592" x="309.77">.</tspan></text>
</g>
<clipPath id="cp114">
<path transform="matrix(1,0,0,-1,0,1008)" d="M .00000912 0 L 612 0 L 612 1008 L .00000912 1008 Z " fill-rule="evenodd"/>
</clipPath>
<g clip-path="url(#cp114)">
<text xml:space="preserve" transform="matrix(1 0 -0 1 0 1008)" font-size="8.04" font-family="Garamond"><tspan y="-51.192" x="14.016 17.489279 22.40976 26.51016 28.287 31.165322 33.08688 39.317884 42.670564 46.77096 50.710565 52.640165 54.441125 56.837045 60.189725 66.428768 68.35033 71.703 74.96724 79.02744 81.06156 85.161968 88.51465 90.65329 94.00597 98.10637 102.174617 105.89713 109.24982 113.326099 115.360218 117.756137 121.85654 123.86654 127.21922 131.31963 135.25923 137.19687 138.99782 140.79877 144.5213 146.32225 150.42266 154.02457 155.78533 158.07672 160.11084 163.58412 168.73777 172.83817 176.89836 179.77669 183.7163 189.9714 191.77236 195.87276 199.47467 201.25151 203.88863 207.12874 212.52359 214.55771 218.65811 221.27916 223.31328 227.25289 231.35329 235.42153 238.7742 241.41936 244.77204 248.87244 252.94068 256.66319 260.01588 264.09214 266.0137 272.24473 275.5974 278.86167 281.23347 283.0264 284.82737 287.45646 289.25743 292.13575 296.23616 297.99693">*This menu item can be cooked to you liking.  *Consuming raw or undercooked meat, fish, </tspan></text>
</g>
<clipPath id="cp115">
<path transform="matrix(1,0,0,-1,0,1008)" d="M .00000912 0 L 612 0 L 612 1008 L .00000912 1008 Z " fill-rule="evenodd"/>
</clipPath>
<g clip-path="url(#cp115)">
<text xml:space="preserve" transform="matrix(1 0 -0 1 0 1008)" font-size="8.04" font-family="Garamond"><tspan y="-39.672" x="14.016 16.89432 20.99472 24.3474 26.13228 27.93324 30.56232 32.36328 35.241605 39.342004 41.5932 45.6936 48.31464 50.34876 52.97784 55.61496 58.96764 61.854 65.9544 67.9644 70.85076 74.951168 78.30385 80.08873 81.889698 84.04442 87.397098 90.999019 94.60094 97.4873 99.64202 105.87302 109.11314 112.46582 114.274829 116.07579 120.17619 123.52887 126.15795 129.51064 132.77487 135.63712 138.98979 141.15254 144.50522 148.60562 152.54523 155.19039 157.2245 159.86162 161.66257 164.5409 168.26343 170.29755 174.39795 176.99488 179.0531 181.68219 185.7826 189.84279 193.91103 195.94515 200.04555 204.10575 206.74286 210.84326 214.19594 216.20594 218.02297 219.82392 221.62487 225.72527 229.07794 231.94823 234.82656 236.61948">shellfish or fresh shell eggs may increase your risk of food borne illness, </tspan></text>
</g>
<clipPath id="cp116">
<path transform="matrix(1,0,0,-1,0,1008)" d="M .00000912 0 L 612 0 L 612 1008 L .00000912 1008 Z " fill-rule="evenodd"/>
</clipPath>
<g clip-path="url(#cp116)">
<text xml:space="preserve" transform="matrix(1 0 -0 1 0 1008)" font-size="8.04" font-family="Garamond"><tspan y="-28.152" x="14.016 17.36868 20.25504 24.35544 27.70812 31.0608 32.85372 36.09384 37.894804 39.695764 43.048444 45.32376 47.12472 49.753805 51.90852 55.2612 59.3616 63.3012 65.230808 69.33121 72.5472 76.26972 79.622409 81.78517 85.13785 88.490528 91.16785 93.53964 96.77976 98.58073 102.68113 104.69113 110.93017 114.28285 118.35913 120.160099 123.51277 126.77701 128.56189 130.59601 133.94869 138.04909 142.11733 146.18556 147.98651 150.38243 152.18338 156.28379 160.34398 163.2223">especially if you have certain medical conditions.</tspan></text>
</g>
<path transform="matrix(1,0,0,-1,0,1008)" d="M 398.76 24.12 L 601.68 24.12 L 601.68 268.92 L 398.76 268.92 Z " fill="#e0e0e0" fill-rule="evenodd"/>
<path transform="matrix(1,0,0,-1,0,1008)" stroke-width=".72" stroke-linecap="butt" stroke-linejoin="round" fill="none" stroke="#000000" d="M 398.76 24.12 L 601.68 24.12 L 601.68 268.92 L 398.76 268.92 Z "/>
<clipPath id="cp117">
<path transform="matrix(1,0,0,-1,0,1008)" d="M .00000912 0 L 612 0 L 612 1008 L .00000912 1008 Z " fill-rule="evenodd"/>
</clipPath>
<g clip-path="url(#cp117)">
<text xml:space="preserve" transform="matrix(1 0 -0 1 0 1008)" font-size="20.04" font-family="Garamond" font-weight="bold"><tspan y="-245.69" x="452.57 468.22126 477.53987 485.89656 494.31336 503.71214 511.2071 517.4796 525.8363">Desserts </tspan></text>
</g>
<clipPath id="cp118">
<path transform="matrix(1,0,0,-1,0,1008)" d="M .00000912 0 L 612 0 L 612 1008 L .00000912 1008 Z " fill-rule="evenodd"/>
</clipPath>
<g clip-path="url(#cp118)">
<text xml:space="preserve" transform="matrix(1 0 -0 1 0 1008)" font-size="20.04" font-family="Garamond" font-weight="bold"><tspan y="-245.69" x="530.83 538.75009">10</tspan></text>
</g>
<clipPath id="cp119">
<path transform="matrix(1,0,0,-1,0,1008)" d="M .00000912 0 L 612 0 L 612 1008 L .00000912 1008 Z " fill-rule="evenodd"/>
</clipPath>
<g clip-path="url(#cp119)">
<text xml:space="preserve" transform="matrix(1 0 -0 1 0 1008)" font-size="15.96" font-family="Garamond"><tspan y="-225.29" x="421.85 430.83549 434.49034 442.6299 450.45033 455.68519 459.29216 465.8996 471.75694 477.61427 481.79579 491.8825 500.0221 508.16169 514.817 522.9566 526.5636 533.04336 537.7037 544.359 548.28518 558.3719 564.8516 572.04959">Flourless Chocolate Cake</tspan></text>
</g>
<clipPath id="cp120">
<path transform="matrix(1,0,0,-1,0,1008)" d="M .00000912 0 L 612 0 L 612 1008 L .00000912 1008 Z " fill-rule="evenodd"/>
</clipPath>
<g clip-path="url(#cp120)">
<text xml:space="preserve" transform="matrix(1 0 -0 1 0 1008)" font-size="15.96" font-family="Garamond"><tspan y="-186.89" x="407.45 417.53675 425.67634 433.81593 440.47126 448.61085 452.2178 458.69758 463.35789 470.0132 473.93937 483.75477 491.89436 499.71476 505.02943 513.169 521.3086 529.4801 533.54989 542.0725 548.68 555.2875 561.7672 569.9068 573.99258 582.978 586.6329">Chocolate Bourbon Pecan Pie</tspan></text>
</g>
<clipPath id="cp121">
<path transform="matrix(1,0,0,-1,0,1008)" d="M .00000912 0 L 612 0 L 612 1008 L .00000912 1008 Z " fill-rule="evenodd"/>
</clipPath>
<g clip-path="url(#cp121)">
<text xml:space="preserve" transform="matrix(1 0 -0 1 0 1008)" font-size="15.96" font-family="Garamond"><tspan y="-148.46" x="409.85 419.93675 428.07633 436.2159 442.87126 451.01084 454.6178 461.09757 465.75788 472.4132 476.33937 483.9842 488.67643 493.9911 500.19953 510.84486 519.01638 525.62387 531.24179 536.98739 543.59487 547.77639 557.8631 563.1778 569.9608 578.1004 584.75576">Chocolate Strawberry Crepes</tspan></text>
</g>
<clipPath id="cp122">
<path transform="matrix(1,0,0,-1,0,1008)" d="M .00000912 0 L 612 0 L 612 1008 L .00000912 1008 Z " fill-rule="evenodd"/>
</clipPath>
<g clip-path="url(#cp122)">
<text xml:space="preserve" transform="matrix(1 0 -0 1 0 1008)" font-size="15.96" font-family="Garamond"><tspan y="-110.06" x="426.89 436.73735 443.2171 451.3567 455.01155 458.57063 462.17759 468.65736 472.72715 484.36198 488.35197 498.40678 506.54637 514.686 521.3413 529.4809 533.0879 539.5676 544.22799 550.8833 554.9052 560.55508 567.14657 573.754">Vanilla &#x0026; Chocolate Ice </tspan></text>
</g>
<clipPath id="cp123">
<path transform="matrix(1,0,0,-1,0,1008)" d="M .00000912 0 L 612 0 L 612 1008 L .00000912 1008 Z " fill-rule="evenodd"/>
</clipPath>
<g clip-path="url(#cp123)">
<text xml:space="preserve" transform="matrix(1 0 -0 1 0 1008)" font-size="15.96" font-family="Garamond"><tspan y="-90.864" x="454.25 464.33674 469.6514 476.21098 482.69075 495.02784 499.20936 508.3225 514.80227 520.42019 525.0805 532.9009 538.05599">Cream Tartufo</tspan></text>
</g>
<clipPath id="cp124">
<path transform="matrix(1,0,0,-1,0,1008)" d="M .00000912 0 L 612 0 L 612 1008 L .00000912 1008 Z " fill-rule="evenodd"/>
</clipPath>
<g clip-path="url(#cp124)">
<text xml:space="preserve" transform="matrix(1 0 -0 1 0 1008)" font-size="15.96" font-family="Garamond"><tspan y="-52.464" x="420.89 435.15827 443.29786 446.9527 451.613 458.2045 462.1945 472.2493 480.3889 488.52848 495.1838 503.3234 506.93037 513.4101 518.07046 524.72579 528.6519 539.45687 543.04788 555.38497 563.52456 571.6641 579.7239">White Chocolate Almond </tspan></text>
</g>
<clipPath id="cp125">
<path transform="matrix(1,0,0,-1,0,1008)" d="M .00000912 0 L 612 0 L 612 1008 L .00000912 1008 Z " fill-rule="evenodd"/>
</clipPath>
<g clip-path="url(#cp125)">
<text xml:space="preserve" transform="matrix(1 0 -0 1 0 1008)" font-size="15.96" font-family="Garamond"><tspan y="-33.264" x="433.37 444.17494 456.51203 462.9918 468.30647 474.86604 479.52635 484.18666 492.3741 496.4439 506.53065 514.6702 521.32559 527.88516 533.74246 540.3499 546.9574 553.43716 560.6351 567.24258">Amaretto Cheesecake </tspan></text>
</g>
<path transform="matrix(1,0,0,-1,0,1008)" d="M 398.76 636.12 L 602.52 636.12 L 602.52 990 L 398.76 990 Z " fill="#e0e0e0" fill-rule="evenodd"/>
<path transform="matrix(1,0,0,-1,0,1008)" stroke-width=".72" stroke-linecap="butt" stroke-linejoin="round" fill="none" stroke="#000000" d="M 398.76 636.12 L 602.52 636.12 L 602.52 990 L 398.76 990 Z "/>
<clipPath id="cp126">
<path transform="matrix(1,0,0,-1,0,1008)" d="M .00000912 0 L 612 0 L 612 1008 L .00000912 1008 Z " fill-rule="evenodd"/>
</clipPath>
<g clip-path="url(#cp126)">
<text xml:space="preserve" transform="matrix(1 0 -0 1 0 1008)" font-size="20.04" font-family="Garamond" font-weight="bold"><tspan y="-968.04" x="447.53 461.09709 471.5379 480.93669 491.5779 497.85044 507.4496 513.0808 518.21109 526.56777 531.57778 536.58779 544.5236">Cocktails  10</tspan></text>
</g>
<clipPath id="cp127">
<path transform="matrix(1,0,0,-1,0,1008)" d="M .00000912 0 L 612 0 L 612 1008 L .00000912 1008 Z " fill-rule="evenodd"/>
</clipPath>
<g clip-path="url(#cp127)">
<text xml:space="preserve" transform="matrix(1 0 -0 1 0 1008)" font-size="15.96" font-family="Garamond"><tspan y="-947.64" x="471.05 483.51475 489.9945 497.47975 503.30516 507.3909 516.536 520.1111 523.7181">Oaks Lily</tspan></text>
</g>
<clipPath id="cp128">
<path transform="matrix(1,0,0,-1,0,1008)" d="M .00000912 0 L 612 0 L 612 1008 L .00000912 1008 Z " fill-rule="evenodd"/>
</clipPath>
<g clip-path="url(#cp128)">
<text xml:space="preserve" transform="matrix(1 0 -0 1 0 1008)" font-size="9.96" font-family="Garamond"><tspan y="-933.96" x="411.89 418.0154 420.29627 423.1747 428.21449 430.39573 433.97138 436.6008 443.34373 448.36357 453.39338 458.0646 462.1482 464.32945 467.05848 474.83723 478.2037 482.27735 487.3171 491.77919 495.9325 498.71134 500.9922 503.27305 508.18333 513.0936 517.2868 522.1971 525.54367 527.72488 529.9858 534.17898 537.5255 541.5992 546.6389 551.67868 555.8718 559.2184 562.56497 566.7581 569.3876 571.6684 576.5787 578.8595 583.0527 587.24588 589.42709">Tito&#x2019;s Vodka, Orange liqueur, cranberry juice, </tspan></text>
</g>
<clipPath id="cp129">
<path transform="matrix(1,0,0,-1,0,1008)" d="M .00000912 0 L 612 0 L 612 1008 L .00000912 1008 Z " fill-rule="evenodd"/>
</clipPath>
<g clip-path="url(#cp129)">
<text xml:space="preserve" transform="matrix(1 0 -0 1 0 1008)" font-size="9.96" font-family="Garamond"><tspan y="-921.96" x="418.37 420.65086 424.844 432.52317 437.56294 442.6027 445.23213 447.51298 452.42326 454.7041 458.89726 463.0904 465.27165 467.53257 471.12815 473.409 481.08818 486.12794 488.40879 492.60194 495.23136 498.82695 503.02009 506.36665 511.27693 516.31668 518.49789 520.98788 527.60128 531.79446 536.8242 541.2863 545.43966 547.8599 552.89968 556.11679 558.7661 561.04696 565.2401 572.91928 577.959">lemon juice, simple syrup, wedge of lemon</tspan></text>
</g>
<clipPath id="cp130">
<path transform="matrix(1,0,0,-1,0,1008)" d="M .00000912 0 L 612 0 L 612 1008 L .00000912 1008 Z " fill-rule="evenodd"/>
</clipPath>
<g clip-path="url(#cp130)">
<text xml:space="preserve" transform="matrix(1 0 -0 1 0 1008)" font-size="15.96" font-family="Garamond"><tspan y="-904.42" x="406.49 414.13484 422.30635 428.7861 434.10078 441.5062 445.11317 448.72013 456.8597 464.05769 468.12748 478.2142 486.0346 492.61015 500.43055 512.7357 520.9072 527.5147 532.8294 537.1067 550.40139 554.0562 562.1958 566.85617 570.8461 583.1513 586.80618">Sparkling Cucumber Mint Gin</tspan></text>
</g>
<clipPath id="cp131">
<path transform="matrix(1,0,0,-1,0,1008)" d="M .00000912 0 L 612 0 L 612 1008 L .00000912 1008 Z " fill-rule="evenodd"/>
</clipPath>
<g clip-path="url(#cp131)">
<text xml:space="preserve" transform="matrix(1 0 -0 1 0 1008)" font-size="9.96" font-family="Garamond"><tspan y="-890.74" x="407.45 415.01963 419.20283 424.24259 429.2724 432.61897 434.8998 439.09297 443.7642 445.56694 449.1625 451.67243 459.3516 461.63246 466.6722 468.85346 471.46296 473.7438 476.02467 483.70384 487.89698 490.4069 492.68775 497.59803 499.87889 504.07203 508.26518 510.4464 512.70736 520.3865 522.6673 527.70706 530.61538 533.2149 536.8104 541.0036 544.35018 549.26046 554.3002 556.4814 559.0909 562.6864 567.72616 571.7998 575.14639 579.8176 582.09848 584.3793 589.42898 593.89108">Hendrick's Gin, lime juice, mint syrup, sparkling </tspan></text>
</g>
<clipPath id="cp132">
<path transform="matrix(1,0,0,-1,0,1008)" d="M .00000912 0 L 612 0 L 612 1008 L .00000912 1008 Z " fill-rule="evenodd"/>
</clipPath>
<g clip-path="url(#cp132)">
<text xml:space="preserve" transform="matrix(1 0 -0 1 0 1008)" font-size="9.96" font-family="Garamond"><tspan y="-878.74" x="430.49 437.09349 441.1671 444.07545 448.22877 451.59526 453.7765 456.386 459.98158 462.26243 464.54328 468.73643 472.92958 477.95939 480.2402 484.43336 489.34364 493.53678 498.44706 506.12623 511.166 515.3592 518.70578 522.3013 524.4825 526.8629 530.45846 532.73928 535.0201 539.21328 543.40646 548.4362 550.71707 552.99789 555.2787 562.9578 567.151">water, sliced cucumbers, sliced limes</tspan></text>
</g>
<clipPath id="cp133">
<path transform="matrix(1,0,0,-1,0,1008)" d="M .00000912 0 L 612 0 L 612 1008 L .00000912 1008 Z " fill-rule="evenodd"/>
</clipPath>
<g clip-path="url(#cp133)">
<text xml:space="preserve" transform="matrix(1 0 -0 1 0 1008)" font-size="15.96" font-family="Garamond"><tspan y="-861.22" x="446.69 457.49494 465.63453 471.5078 475.11479 483.25437 487.91468 496.10215 502.7096 506.6996 519.00479 525.4845 529.13937 536.91189 544.73226 548.3073 553.622">Absinthe Daiquiri</tspan></text>
</g>
<clipPath id="cp134">
<path transform="matrix(1,0,0,-1,0,1008)" d="M .00000912 0 L 612 0 L 612 1008 L .00000912 1008 Z " fill-rule="evenodd"/>
</clipPath>
<g clip-path="url(#cp134)">
<text xml:space="preserve" transform="matrix(1 0 -0 1 0 1008)" font-size="9.96" font-family="Garamond"><tspan y="-847.54" x="411.41 417.5354 421.5991 425.79225 429.86589 433.21244 438.24226 440.5231 443.0131 449.26799 454.17826 461.85743 464.03868 466.52867 468.8095 471.09037 478.76954 482.97267 485.48258 487.76344 492.6737 494.95457 499.1477 503.34086 505.5221 507.78303 511.3786 513.6594 521.33859 526.3783 528.6591 532.8523 535.3622 538.9577 543.1509 546.49746 551.4077 556.44747 558.62869 561.23818 566.26797 570.3416 573.93716 578.97689 581.6063 586.64608 589.86318">Bacardi Rum, lime juice, simple syrup, dash of </tspan></text>
</g>
<clipPath id="cp135">
<path transform="matrix(1,0,0,-1,0,1008)" d="M .00000912 0 L 612 0 L 612 1008 L .00000912 1008 Z " fill-rule="evenodd"/>
</clipPath>
<g clip-path="url(#cp135)">
<text xml:space="preserve" transform="matrix(1 0 -0 1 0 1008)" font-size="9.96" font-family="Garamond"><tspan y="-835.54" x="452.45 459.19294 464.21278 467.80836 470.0892 475.12898 478.0373 483.04716 487.2403 489.42155 492.15058 498.75407 502.9472 507.97703 512.4391 516.5924 519.0127 524.0524 527.26956 529.9189 532.4288 534.7096 536.9904 544.66958 548.86276">Absinthe, wedge of  lime </tspan></text>
</g>
<clipPath id="cp136">
<path transform="matrix(1,0,0,-1,0,1008)" d="M .00000912 0 L 612 0 L 612 1008 L .00000912 1008 Z " fill-rule="evenodd"/>
</clipPath>
<g clip-path="url(#cp136)">
<text xml:space="preserve" transform="matrix(1 0 -0 1 0 1008)" font-size="15.96" font-family="Garamond"><tspan y="-818.02" x="425.81 433.45484 441.62635 445.2333 451.84077 458.4482">Spicy </tspan></text>
</g>
<clipPath id="cp137">
<path transform="matrix(1,0,0,-1,0,1008)" d="M .00000912 0 L 612 0 L 612 1008 L .00000912 1008 Z " fill-rule="evenodd"/>
</clipPath>
<g clip-path="url(#cp137)">
<text xml:space="preserve" transform="matrix(1 0 -0 1 0 1008)" font-size="15.96" font-family="Garamond"><tspan y="-818.02" x="462.41 467.21397 473.69374 477.3007 483.78047 491.92005 498.57539 506.71498 514.85458 518.9243 532.219 538.6987 544.0134 551.5466 558.0263 563.341 566.9001 571.5604">Jalape&#x00f1;o Margarita</tspan></text>
</g>
<clipPath id="cp138">
<path transform="matrix(1,0,0,-1,0,1008)" d="M .00000912 0 L 612 0 L 612 1008 L .00000912 1008 Z " fill-rule="evenodd"/>
</clipPath>
<g clip-path="url(#cp138)">
<text xml:space="preserve" transform="matrix(1 0 -0 1 0 1008)" font-size="9.96" font-family="Garamond"><tspan y="-804.34" x="418.01 425.57963 430.6094 433.95597 438.99574 441.27659 444.1849 449.19477 452.79035">Hornitos </tspan></text>
</g>
<clipPath id="cp139">
<path transform="matrix(1,0,0,-1,0,1008)" d="M .00000912 0 L 612 0 L 612 1008 L .00000912 1008 Z " fill-rule="evenodd"/>
</clipPath>
<g clip-path="url(#cp139)">
<text xml:space="preserve" transform="matrix(1 0 -0 1 0 1008)" font-size="9.96" font-family="Garamond"><tspan y="-804.34" x="455.69 460.72978 463.01063 467.08427 472.12403 476.31718">blanco</tspan></text>
</g>
<clipPath id="cp140">
<path transform="matrix(1,0,0,-1,0,1008)" d="M .00000912 0 L 612 0 L 612 1008 L .00000912 1008 Z " fill-rule="evenodd"/>
</clipPath>
<g clip-path="url(#cp140)">
<text xml:space="preserve" transform="matrix(1 0 -0 1 0 1008)" font-size="9.96" font-family="Garamond"><tspan y="-804.34" x="484.01 487.35658 491.4302 493.71107 497.7847 502.82447 507.0176 512.0574">Jalape&#x00f1;o</tspan></text>
</g>
<clipPath id="cp141">
<path transform="matrix(1,0,0,-1,0,1008)" d="M .00000912 0 L 612 0 L 612 1008 L .00000912 1008 Z " fill-rule="evenodd"/>
</clipPath>
<g clip-path="url(#cp141)">
<text xml:space="preserve" transform="matrix(1 0 -0 1 0 1008)" font-size="9.96" font-family="Garamond"><tspan y="-804.34" x="517.15">-</tspan></text>
</g>
<clipPath id="cp142">
<path transform="matrix(1,0,0,-1,0,1008)" d="M .00000912 0 L 612 0 L 612 1008 L .00000912 1008 Z " fill-rule="evenodd"/>
</clipPath>
<g clip-path="url(#cp142)">
<text xml:space="preserve" transform="matrix(1 0 -0 1 0 1008)" font-size="9.96" font-family="Garamond"><tspan y="-804.34" x="520.27 523.74606 528.78579 532.00289 536.93307 540.52859 544.72177 549.7515 552.5005 558.6259 562.80917 567.7194 572.6297 574.9105 577.19137 581.255 583.4362">Infused Tequila, </tspan></text>
</g>
<clipPath id="cp143">
<path transform="matrix(1,0,0,-1,0,1008)" d="M .00000912 0 L 612 0 L 612 1008 L .00000912 1008 Z " fill-rule="evenodd"/>
</clipPath>
<g clip-path="url(#cp143)">
<text xml:space="preserve" transform="matrix(1 0 -0 1 0 1008)" font-size="9.96" font-family="Garamond"><tspan y="-792.34" x="419.33 422.92558 425.20643 432.8856 437.92536 440.2062 444.39936 446.90928 450.50486 454.698 458.04457 462.95484 467.9946 470.17585 472.78535 476.0024 479.37886 483.572 487.16758 492.20735 494.71726 496.9981 499.27897 506.95814 511.15129 513.55166 515.83248 520.74276 523.02359 527.21676 531.4099 533.5911 535.97158 542.4555 544.7363 549.7661 553.9593 557.30587 560.52297 562.8038 567.88339 574.4669 578.6601 582.00668">simple syrup, fresh lime juice, Elderflower </tspan></text>
</g>
<clipPath id="cp144">
<path transform="matrix(1,0,0,-1,0,1008)" d="M .00000912 0 L 612 0 L 612 1008 L .00000912 1008 Z " fill-rule="evenodd"/>
</clipPath>
<g clip-path="url(#cp144)">
<text xml:space="preserve" transform="matrix(1 0 -0 1 0 1008)" font-size="9.96" font-family="Garamond"><tspan y="-780.34" x="441.77 444.05085 446.3317 451.24198 456.15226 461.19203 464.53858">liquor,</tspan></text>
</g>
<clipPath id="cp145">
<path transform="matrix(1,0,0,-1,0,1008)" d="M .00000912 0 L 612 0 L 612 1008 L .00000912 1008 Z " fill-rule="evenodd"/>
</clipPath>
<g clip-path="url(#cp145)">
<text xml:space="preserve" transform="matrix(1 0 -0 1 0 1008)" font-size="9.96" font-family="Garamond"><tspan y="-780.34" x="469.25 472.84559 475.12644 477.4073 481.60044 485.79359 489.38917 491.78953 494.07038 498.144 500.42488 504.4985 509.53828 513.73147 518.7712 523.8109 526.44039 530.51406 535.5538 540.58358 543.213 545.49386 547.77468 555.4538">slices jalapeno and lime</tspan></text>
</g>
<clipPath id="cp146">
<path transform="matrix(1,0,0,-1,0,1008)" d="M .00000912 0 L 612 0 L 612 1008 L .00000912 1008 Z " fill-rule="evenodd"/>
</clipPath>
<g clip-path="url(#cp146)">
<text xml:space="preserve" transform="matrix(1 0 -0 1 0 1008)" font-size="15.96" font-family="Garamond"><tspan y="-762.82" x="452.81 462.6254 470.76499 478.5854 483.90007 492.03965 500.17924 508.35075 512.42056 520.06539 528.2369 533.5516 537.11068 541.771">Bourbon Spritz</tspan></text>
</g>
<clipPath id="cp147">
<path transform="matrix(1,0,0,-1,0,1008)" d="M .00000912 0 L 612 0 L 612 1008 L .00000912 1008 Z " fill-rule="evenodd"/>
</clipPath>
<g clip-path="url(#cp147)">
<text xml:space="preserve" transform="matrix(1 0 -0 1 0 1008)" font-size="9.96" font-family="Garamond"><tspan y="-749.14" x="410.81 418.13059 422.32374 427.3635 430.27183 435.15223 439.35536 444.02659 448.2297 450.63008 456.75547 461.78526 466.69554 470.04209 475.08186 480.1216 485.16139 487.34263 490.19117 496.93409 501.95393 506.14707 509.49363 514.5334 516.8142 518.9954 521.7244 524.9415 528.31796 532.5111 536.1066 541.14639 543.65628 545.9371 550.13027 557.8094 562.8491 567.88888 570.5183 572.79916 577.7094 579.99026 584.1834 588.3766 590.5578">Kentucky Bourbon, Aperol, fresh lemon juice, </tspan></text>
</g>
<clipPath id="cp148">
<path transform="matrix(1,0,0,-1,0,1008)" d="M .00000912 0 L 612 0 L 612 1008 L .00000912 1008 Z " fill-rule="evenodd"/>
</clipPath>
<g clip-path="url(#cp148)">
<text xml:space="preserve" transform="matrix(1 0 -0 1 0 1008)" font-size="9.96" font-family="Garamond"><tspan y="-737.14" x="413.09 416.68559 421.72535 424.0062 428.07984 431.6754 436.71519 439.46415 444.5039 447.72099 450.2508 453.84638 456.12724 463.8064 468.84617 471.127 475.32017 477.9496 481.54518 485.7383 489.08488 493.99516 499.0349 501.21617 503.70616 509.3435 512.69009 517.7298 521.3253 525.5185 529.7117 533.90487 538.9446 541.1258 543.7353 548.775 552.1216 556.19528 561.235 565.6971 569.8504 572.5097 577.54946 581.7426 585.9358">splash of simple syrup, Prosecco, orange peel</tspan></text>
</g>
<clipPath id="cp149">
<path transform="matrix(1,0,0,-1,0,1008)" d="M .00000912 0 L 612 0 L 612 1008 L .00000912 1008 Z " fill-rule="evenodd"/>
</clipPath>
<g clip-path="url(#cp149)">
<text xml:space="preserve" transform="matrix(1 0 -0 1 0 1008)" font-size="15.96" font-family="Garamond"><tspan y="-719.59" x="439.25 453.51826 461.65785 465.31269 469.973 476.56449 480.55448 494.67909 498.28605 506.42564 513.08096 517.0071 524.6519 531.13168 539.30319 546.85226 552.16696 555.726">White Wine Sangria</tspan></text>
</g>
<clipPath id="cp150">
<path transform="matrix(1,0,0,-1,0,1008)" d="M .00000912 0 L 612 0 L 612 1008 L .00000912 1008 Z " fill-rule="evenodd"/>
</clipPath>
<g clip-path="url(#cp150)">
<text xml:space="preserve" transform="matrix(1 0 -0 1 0 1008)" font-size="9.96" font-family="Garamond"><tspan y="-705.91" x="413.45 422.2148 427.25459 429.53544 432.44377 436.59709 439.24644 444.01728 448.1208 453.16056 457.62263 460.9393 463.22016 467.31373 469.94316 473.53874 476.44706 480.60038 488.27955 491.91496 494.40495 497.6519 500.99845 506.0382 513.71737 516.3468 520.4205 523.0499 527.82077 531.92428 536.83456 541.5058 543.7866 548.2487 553.2785 558.31826 563.358 566.10696 572.23239 574.5132 578.57687 583.6166 587.80978">White Sangria stems from a Sauvignon Blanc </tspan></text>
</g>
<clipPath id="cp151">
<path transform="matrix(1,0,0,-1,0,1008)" d="M .00000912 0 L 612 0 L 612 1008 L .00000912 1008 Z " fill-rule="evenodd"/>
</clipPath>
<g clip-path="url(#cp151)">
<text xml:space="preserve" transform="matrix(1 0 -0 1 0 1008)" font-size="9.96" font-family="Garamond"><tspan y="-693.91" x="409.61 413.68363 418.7234 423.7532 426.38264 431.4224 435.49604 437.7769 441.85054 446.8903 451.08345 455.27659 458.87217 461.38209 466.42185 471.33213 474.24046 476.73045 479.63877 484.64863 488.84178 491.35169 495.54484 498.8914 501.17225 504.76783 509.8076 512.3175 516.3912 521.4309 526.4607 529.09017 532.4367 536.6299 539.847 543.2234 547.41659 551.0121 556.0518 558.33267 563.3724 567.8345 570.444 574.63717 576.91799 579.8263 583.14297 588.0632 591.6587">and balances out the crisp and refreshing citrus </tspan></text>
</g>
<clipPath id="cp152">
<path transform="matrix(1,0,0,-1,0,1008)" d="M .00000912 0 L 612 0 L 612 1008 L .00000912 1008 Z " fill-rule="evenodd"/>
</clipPath>
<g clip-path="url(#cp152)">
<text xml:space="preserve" transform="matrix(1 0 -0 1 0 1008)" font-size="9.96" font-family="Garamond"><tspan y="-681.91" x="415.49 418.70707 420.9879 425.08149 429.75273 434.80244 438.149 441.74458 444.49354 449.5333 452.75038 455.28019 457.56105 461.75419 469.43336 474.4731 479.51289 481.69413 484.42317 486.704 488.98487 496.66404 500.85719 503.03843 505.5284 510.57814 513.9247 517.99838 523.0381 527.5002 531.6535 534.4323 538.506 543.5457 548.5755 551.0854 554.6809 559.72067 562.00149 566.07516 569.67068 574.7104 577.45938 582.4991 585.7162">flavors of lemon, lime, orange and splash of </tspan></text>
</g>
<clipPath id="cp153">
<path transform="matrix(1,0,0,-1,0,1008)" d="M .00000912 0 L 612 0 L 612 1008 L .00000912 1008 Z " fill-rule="evenodd"/>
</clipPath>
<g clip-path="url(#cp153)">
<text xml:space="preserve" transform="matrix(1 0 -0 1 0 1008)" font-size="9.96" font-family="Garamond"><tspan y="-669.91" x="491.81 495.40559 500.44535 505.47517">soda</tspan></text>
</g>
<clipPath id="cp154">
<path transform="matrix(1,0,0,-1,0,1008)" d="M .00000912 0 L 612 0 L 612 1008 L .00000912 1008 Z " fill-rule="evenodd"/>
</clipPath>
<g clip-path="url(#cp154)">
<text xml:space="preserve" transform="matrix(1 0 -0 1 0 1008)" font-size="9.96" font-family="Garamond"><tspan y="-645.91" x="467.93 473.5574 478.46769 480.74855 483.0294 485.42976 490.4695 494.54316 497.8897 500.51914 504.59278 509.264 513.3476 515.6284 517.90927 521.9729 527.01266 529.29348">Full bar available</tspan></text>
</g>
<path transform="matrix(1,0,0,-1,0,1008)" d="M 398.76 295.08 L 602.52 295.08 L 602.52 610.07998 L 398.76 610.07998 Z " fill="#e0e0e0" fill-rule="evenodd"/>
<path transform="matrix(1,0,0,-1,0,1008)" stroke-width=".72" stroke-linecap="butt" stroke-linejoin="round" fill="none" stroke="#000000" d="M 398.76 295.08 L 602.52 295.08 L 602.52 610.07998 L 398.76 610.07998 Z "/>
<clipPath id="cp155">
<path transform="matrix(1,0,0,-1,0,1008)" d="M .00000912 0 L 612 0 L 612 1008 L .00000912 1008 Z " fill-rule="evenodd"/>
</clipPath>
<g clip-path="url(#cp155)">
<text xml:space="preserve" transform="matrix(1 0 -0 1 0 1008)" font-size="20.04" font-family="Garamond" font-weight="bold"><tspan y="-588.07" x="481.15 494.71708 504.11585 513.43447">Beer</tspan></text>
</g>
<clipPath id="cp156">
<path transform="matrix(1,0,0,-1,0,1008)" d="M .00000912 0 L 612 0 L 612 1008 L .00000912 1008 Z " fill-rule="evenodd"/>
</clipPath>
<g clip-path="url(#cp156)">
<text xml:space="preserve" transform="matrix(1 0 -0 1 0 1008)" font-size="15.96" font-family="Garamond"><tspan y="-567.65" x="478.61 487.75508 494.23484 502.37443">Tap </tspan></text>
</g>
<clipPath id="cp157">
<path transform="matrix(1,0,0,-1,0,1008)" d="M .00000912 0 L 612 0 L 612 1008 L .00000912 1008 Z " fill-rule="evenodd"/>
</clipPath>
<g clip-path="url(#cp157)">
<text xml:space="preserve" transform="matrix(1 0 -0 1 0 1008)" font-size="15.96" font-family="Garamond"><tspan y="-567.65" x="506.47">-</tspan></text>
</g>
<clipPath id="cp158">
<path transform="matrix(1,0,0,-1,0,1008)" d="M .00000912 0 L 612 0 L 612 1008 L .00000912 1008 Z " fill-rule="evenodd"/>
</clipPath>
<g clip-path="url(#cp158)">
<text xml:space="preserve" transform="matrix(1 0 -0 1 0 1008)" font-size="15.96" font-family="Garamond"><tspan y="-567.65" x="515.47">7</tspan></text>
</g>
<clipPath id="cp159">
<path transform="matrix(1,0,0,-1,0,1008)" d="M .00000912 0 L 612 0 L 612 1008 L .00000912 1008 Z " fill-rule="evenodd"/>
</clipPath>
<g clip-path="url(#cp159)">
<text xml:space="preserve" transform="matrix(1 0 -0 1 0 1008)" font-size="14.04" font-family="Garamond"><tspan y="-550.37" x="456.29 464.6859 471.56553 477.4202 484.5806 490.8705 494.08567 497.3008 504.51737">Yuengling</tspan></text>
</g>
<clipPath id="cp160">
<path transform="matrix(1,0,0,-1,0,1008)" d="M .00000912 0 L 612 0 L 612 1008 L .00000912 1008 Z " fill-rule="evenodd"/>
</clipPath>
<g clip-path="url(#cp160)">
<text xml:space="preserve" transform="matrix(1 0 -0 1 0 1008)" font-size="14.04" font-family="Garamond"><tspan y="-550.37" x="514.27 522.31497 528.0573 534.5297 540.3844">Lager</tspan></text>
</g>
<clipPath id="cp161">
<path transform="matrix(1,0,0,-1,0,1008)" d="M .00000912 0 L 612 0 L 612 1008 L .00000912 1008 Z " fill-rule="evenodd"/>
</clipPath>
<g clip-path="url(#cp161)">
<text xml:space="preserve" transform="matrix(1 0 -0 1 0 1008)" font-size="14.04" font-family="Garamond"><tspan y="-533.57" x="438.65 445.37516 448.5903 454.47306 459.4994 464.1747 469.9311 473.28666 484.11149 489.96617 496.32627 502.0686 509.1307 514.87307 518.22866 525.66989 531.41226 534.6274 540.5242 544.0342 553.4831 556.69827">Sierra Nevada Pale Ale</tspan></text>
</g>
<clipPath id="cp162">
<path transform="matrix(1,0,0,-1,0,1008)" d="M .00000912 0 L 612 0 L 612 1008 L .00000912 1008 Z " fill-rule="evenodd"/>
</clipPath>
<g clip-path="url(#cp162)">
<text xml:space="preserve" transform="matrix(1 0 -0 1 0 1008)" font-size="15.96" font-family="Garamond"><tspan y="-476.45" x="481.99 491.8054 499.94499 504.65318 509.31349 512.9683">Bottle</tspan></text>
</g>
<clipPath id="cp163">
<path transform="matrix(1,0,0,-1,0,1008)" d="M .00000912 0 L 612 0 L 612 1008 L .00000912 1008 Z " fill-rule="evenodd"/>
</clipPath>
<g clip-path="url(#cp163)">
<text xml:space="preserve" transform="matrix(1 0 -0 1 0 1008)" font-size="15.96" font-family="Garamond"><tspan y="-322.82" x="459.41 469.49674 475.9765 484.1161 488.20185 495.68708 503.07655 511.21614 518.03109">Can 16oz </tspan></text>
</g>
<clipPath id="cp164">
<path transform="matrix(1,0,0,-1,0,1008)" d="M .00000912 0 L 612 0 L 612 1008 L .00000912 1008 Z " fill-rule="evenodd"/>
</clipPath>
<g clip-path="url(#cp164)">
<text xml:space="preserve" transform="matrix(1 0 -0 1 0 1008)" font-size="15.96" font-family="Garamond"><tspan y="-322.82" x="522.19">-</tspan></text>
</g>
<clipPath id="cp165">
<path transform="matrix(1,0,0,-1,0,1008)" d="M .00000912 0 L 612 0 L 612 1008 L .00000912 1008 Z " fill-rule="evenodd"/>
</clipPath>
<g clip-path="url(#cp165)">
<text xml:space="preserve" transform="matrix(1 0 -0 1 0 1008)" font-size="15.96" font-family="Garamond"><tspan y="-322.82" x="531.19 538.63009">8:</tspan></text>
</g>
<clipPath id="cp166">
<path transform="matrix(1,0,0,-1,0,1008)" d="M .00000912 0 L 612 0 L 612 1008 L .00000912 1008 Z " fill-rule="evenodd"/>
</clipPath>
<g clip-path="url(#cp166)">
<text xml:space="preserve" transform="matrix(1 0 -0 1 0 1008)" font-size="14.04" font-family="Garamond"><tspan y="-305.54" x="458.93 469.75483 476.56425 479.7794 486.99595 494.15635 500.06718 505.19178 510.37254 513.6157 520.3409 524.44058 531.60098 538.4805">Guinness Stout</tspan></text>
</g>
<clipPath id="cp167">
<path transform="matrix(1,0,0,-1,0,1008)" d="M .00000912 0 L 612 0 L 612 1008 L .00000912 1008 Z " fill-rule="evenodd"/>
</clipPath>
<g clip-path="url(#cp167)">
<text xml:space="preserve" transform="matrix(1 0 -0 1 0 1008)" font-size="15.96" font-family="Garamond"><tspan y="-457.25" x="406.61 418.94709 427.08668 439.4557 446.06315 451.92048 456.58079 460.23564 466.7952">Domestic </tspan></text>
</g>
<clipPath id="cp168">
<path transform="matrix(1,0,0,-1,0,1008)" d="M .00000912 0 L 612 0 L 612 1008 L .00000912 1008 Z " fill-rule="evenodd"/>
</clipPath>
<g clip-path="url(#cp168)">
<text xml:space="preserve" transform="matrix(1 0 -0 1 0 1008)" font-size="15.96" font-family="Garamond"><tspan y="-457.25" x="470.81">-</tspan></text>
</g>
<clipPath id="cp169">
<path transform="matrix(1,0,0,-1,0,1008)" d="M .00000912 0 L 612 0 L 612 1008 L .00000912 1008 Z " fill-rule="evenodd"/>
</clipPath>
<g clip-path="url(#cp169)">
<text xml:space="preserve" transform="matrix(1 0 -0 1 0 1008)" font-size="15.96" font-family="Garamond"><tspan y="-457.25" x="483.89">5</tspan></text>
</g>
<clipPath id="cp170">
<path transform="matrix(1,0,0,-1,0,1008)" d="M .00000912 0 L 612 0 L 612 1008 L .00000912 1008 Z " fill-rule="evenodd"/>
</clipPath>
<g clip-path="url(#cp170)">
<text xml:space="preserve" transform="matrix(1 0 -0 1 0 1008)" font-size="14.04" font-family="Garamond"><tspan y="-439.97" x="416.81 428.56147 431.7766 435.03388 438.24903 444.1458 448.82115 452.19075 460.23567 463.4508 469.74073 476.90113">Miller Light</tspan></text>
</g>
<clipPath id="cp171">
<path transform="matrix(1,0,0,-1,0,1008)" d="M .00000912 0 L 612 0 L 612 1008 L .00000912 1008 Z " fill-rule="evenodd"/>
</clipPath>
<g clip-path="url(#cp171)">
<text xml:space="preserve" transform="matrix(1 0 -0 1 0 1008)" font-size="14.04" font-family="Garamond"><tspan y="-423.17" x="416.33 425.2454 432.4058 439.59428 444.2696 449.3942 452.67958 460.7245 463.93965 470.22956 477.38996">Coors Light</tspan></text>
</g>
<clipPath id="cp172">
<path transform="matrix(1,0,0,-1,0,1008)" d="M .00000912 0 L 612 0 L 612 1008 L .00000912 1008 Z " fill-rule="evenodd"/>
</clipPath>
<g clip-path="url(#cp172)">
<text xml:space="preserve" transform="matrix(1 0 -0 1 0 1008)" font-size="14.04" font-family="Garamond"><tspan y="-406.37" x="407.81 419.56147 422.7766 428.43473 435.59513 441.50596 444.7211 451.93766 459.09806 462.38343 472.32374 475.56697 479.66664 484.34196">Michelob Ultra</tspan></text>
</g>
<clipPath id="cp173">
<path transform="matrix(1,0,0,-1,0,1008)" d="M .00000912 0 L 612 0 L 612 1008 L .00000912 1008 Z " fill-rule="evenodd"/>
</clipPath>
<g clip-path="url(#cp173)">
<text xml:space="preserve" transform="matrix(1 0 -0 1 0 1008)" font-size="14.04" font-family="Garamond"><tspan y="-389.57" x="421.49 430.1246 437.0042 444.0242 447.5342 455.57914 458.79429 465.0842 472.2446">Bud Light</tspan></text>
</g>
<clipPath id="cp174">
<path transform="matrix(1,0,0,-1,0,1008)" d="M .00000912 0 L 612 0 L 612 1008 L .00000912 1008 Z " fill-rule="evenodd"/>
</clipPath>
<g clip-path="url(#cp174)">
<text xml:space="preserve" transform="matrix(1 0 -0 1 0 1008)" font-size="14.04" font-family="Garamond"><tspan y="-372.77" x="420.65 429.2846 436.1642 443.1842 452.32426 458.17893 461.4362 466.5608 472.45759">Budweiser</tspan></text>
</g>
<clipPath id="cp175">
<path transform="matrix(1,0,0,-1,0,1008)" d="M .00000912 0 L 612 0 L 612 1008 L .00000912 1008 Z " fill-rule="evenodd"/>
</clipPath>
<g clip-path="url(#cp175)">
<text xml:space="preserve" transform="matrix(1 0 -0 1 0 1008)" font-size="15.96" font-family="Garamond"><tspan y="-458.26" x="507.94 513.58987 525.895 534.08248 542.22207 547.8719 552.5322 559.18759 567.16757">Imported </tspan></text>
</g>
<clipPath id="cp176">
<path transform="matrix(1,0,0,-1,0,1008)" d="M .00000912 0 L 612 0 L 612 1008 L .00000912 1008 Z " fill-rule="evenodd"/>
</clipPath>
<g clip-path="url(#cp176)">
<text xml:space="preserve" transform="matrix(1 0 -0 1 0 1008)" font-size="15.96" font-family="Garamond"><tspan y="-458.26" x="571.2">-</tspan></text>
</g>
<clipPath id="cp177">
<path transform="matrix(1,0,0,-1,0,1008)" d="M .00000912 0 L 612 0 L 612 1008 L .00000912 1008 Z " fill-rule="evenodd"/>
</clipPath>
<g clip-path="url(#cp177)">
<text xml:space="preserve" transform="matrix(1 0 -0 1 0 1008)" font-size="15.96" font-family="Garamond"><tspan y="-458.26" x="580.2">6</tspan></text>
</g>
<clipPath id="cp178">
<path transform="matrix(1,0,0,-1,0,1008)" d="M .00000912 0 L 612 0 L 612 1008 L .00000912 1008 Z " fill-rule="evenodd"/>
</clipPath>
<g clip-path="url(#cp178)">
<text xml:space="preserve" transform="matrix(1 0 -0 1 0 1008)" font-size="14.04" font-family="Garamond"><tspan y="-440.98" x="510.58 519.49539 526.65579 531.33108 538.51956 545.67996 551.4644 554.70767 563.9179 570.4184 574.51809 579.19338">Corona Extra</tspan></text>
</g>
<clipPath id="cp179">
<path transform="matrix(1,0,0,-1,0,1008)" d="M .00000912 0 L 612 0 L 612 1008 L .00000912 1008 Z " fill-rule="evenodd"/>
</clipPath>
<g clip-path="url(#cp179)">
<text xml:space="preserve" transform="matrix(1 0 -0 1 0 1008)" font-size="14.04" font-family="Garamond"><tspan y="-424.18" x="521.62 532.2904 538.1451 541.40237 548.56277 554.4736 560.8337 566.68838">Heineken</tspan></text>
</g>
<clipPath id="cp180">
<path transform="matrix(1,0,0,-1,0,1008)" d="M .00000912 0 L 612 0 L 612 1008 L .00000912 1008 Z " fill-rule="evenodd"/>
</clipPath>
<g clip-path="url(#cp180)">
<text xml:space="preserve" transform="matrix(1 0 -0 1 0 1008)" font-size="14.04" font-family="Garamond"><tspan y="-407.38" x="531.82 540.4546 546.30929 551.98147 558.5662">Becks</tspan></text>
</g>
<clipPath id="cp181">
<path transform="matrix(1,0,0,-1,0,1008)" d="M .00000912 0 L 612 0 L 612 1008 L .00000912 1008 Z " fill-rule="evenodd"/>
</clipPath>
<g clip-path="url(#cp181)">
<text xml:space="preserve" transform="matrix(1 0 -0 1 0 1008)" font-size="14.064" font-family="Garamond"><tspan y="-390.58" x="530.02 537.4599 543.3246 548.0079 555.18057 562.4095">Peroni</tspan></text>
</g>
<clipPath id="cp182">
<path transform="matrix(1,0,0,-1,0,1008)" d="M .00000912 0 L 612 0 L 612 1008 L .00000912 1008 Z " fill-rule="evenodd"/>
</clipPath>
<g clip-path="url(#cp182)">
<text xml:space="preserve" transform="matrix(1 0 -0 1 0 1008)" font-size="14.04" font-family="Garamond"><tspan y="-373.75" x="533.38 540.10519 544.20486 550.0595 553.27468 556.5319">Stella</tspan></text>
</g>
</g>
</g>
</svg>
