<?xml version="1.0" encoding="UTF-8" standalone="no"?>
<svg
   xmlns:dc="http://purl.org/dc/elements/1.1/"
   xmlns:cc="http://creativecommons.org/ns#"
   xmlns:rdf="http://www.w3.org/1999/02/22-rdf-syntax-ns#"
   xmlns:svg="http://www.w3.org/2000/svg"
   xmlns="http://www.w3.org/2000/svg"
   xmlns:sodipodi="http://sodipodi.sourceforge.net/DTD/sodipodi-0.dtd"
   xmlns:inkscape="http://www.inkscape.org/namespaces/inkscape"
   inkscape:version="1.0 (4035a4fb49, 2020-05-01)"
   height="55"
   width="55"
   sodipodi:docname="trip-advisor.svg"
   xml:space="preserve"
   viewBox="0 0 55 55"
   y="0px"
   x="0px"
   id="Layer_1"
   version="1.1"><metadata
   id="metadata12"><rdf:RDF><cc:Work
       rdf:about=""><dc:format>image/svg+xml</dc:format><dc:type
         rdf:resource="http://purl.org/dc/dcmitype/StillImage" /><dc:title></dc:title></cc:Work></rdf:RDF></metadata><defs
   id="defs10" /><sodipodi:namedview
   inkscape:current-layer="Layer_1"
   inkscape:window-maximized="1"
   inkscape:window-y="-8"
   inkscape:window-x="-8"
   inkscape:cy="27.5"
   inkscape:cx="27.5"
   inkscape:zoom="9.2708333"
   fit-margin-bottom="0"
   fit-margin-right="0"
   fit-margin-left="0"
   fit-margin-top="0"
   showgrid="false"
   id="namedview8"
   inkscape:window-height="1057"
   inkscape:window-width="1920"
   inkscape:pageshadow="2"
   inkscape:pageopacity="0"
   guidetolerance="10"
   gridtolerance="10"
   objecttolerance="10"
   borderopacity="1"
   bordercolor="#666666"
   pagecolor="#ffffff" />
<style
   id="style2"
   type="text/css">
	.st0{fill:#479951;}
	.st1{fill:#FFFFFF;}
</style>
<g
   transform="translate(-20.5,-20.5)"
   id="XMLID_1_">
	<circle
   r="27.5"
   cy="48"
   cx="48"
   class="st0"
   id="XMLID_3_" />
	<path
   d="m 65.9,43.4 c 0.4,-1.1 0.9,-2.4 1.7,-3.2 h -6.5 c -0.1,0 -0.2,-0.1 -0.3,-0.1 -0.4,-0.6 -2.8,-3.7 -12.4,-3.7 -10.6,0 -12.5,3.8 -12.5,3.8 h -6.8 c 0.9,0.9 1.5,2.4 1.8,3.5 -1.2,1.7 -2,3.7 -2,6 0,5.5 4.4,10 9.9,10 3,0 5.7,-1.4 7.5,-3.5 l 2.2,3.2 1.9,-3.3 c 1.8,2.2 4.6,3.7 7.6,3.7 5.4,0 9.9,-4.5 9.9,-10 0.2,-2.5 -0.6,-4.7 -2,-6.4 z M 39,57.5 c -4.4,0 -7.9,-3.6 -7.9,-7.9 0,-4.4 3.6,-7.9 7.9,-7.9 4.4,0 7.9,3.6 7.9,7.9 0,4.4 -3.5,7.9 -7.9,7.9 z M 35.6,46.2 c -0.9,0.9 -1.4,2.1 -1.4,3.4 0,1.3 0.5,2.5 1.4,3.4 0.9,0.9 2.1,1.4 3.4,1.4 2.6,0 4.8,-2.1 4.8,-4.8 0,-2.6 -2.1,-4.8 -4.8,-4.8 -1.3,0 -2.5,0.5 -3.4,1.4 z m 0.8,6 c -0.7,-0.7 -1.1,-1.6 -1.1,-2.6 0,-1 0.4,-1.9 1.1,-2.6 0.7,-0.7 1.6,-1.1 2.6,-1.1 2,0 3.7,1.7 3.7,3.7 0,2 -1.7,3.7 -3.7,3.7 -1,0 -1.9,-0.4 -2.6,-1.1 0,0 0.7,0.7 0,0 z m 1,-2.6 c 0,0.9 0.7,1.6 1.6,1.6 0.9,0 1.6,-0.7 1.6,-1.6 0,-0.9 -0.7,-1.6 -1.6,-1.6 -0.9,0 -1.6,0.7 -1.6,1.6 z M 58,57.5 c -4.4,0 -7.9,-3.6 -7.9,-7.9 0,-4.4 3.6,-7.9 7.9,-7.9 4.4,0 7.9,3.6 7.9,7.9 C 66,54 62.4,57.5 58,57.5 Z M 54.7,46.2 c -0.9,0.9 -1.4,2.1 -1.4,3.4 0,1.3 0.5,2.5 1.4,3.4 0.9,0.9 2.1,1.4 3.4,1.4 2.6,0 4.8,-2.1 4.8,-4.8 0,-2.6 -2.1,-4.8 -4.8,-4.8 -1.3,0 -2.5,0.5 -3.4,1.4 z m 0.7,6 c -0.7,-0.7 -1.1,-1.6 -1.1,-2.6 0,-1 0.4,-1.9 1.1,-2.6 0.7,-0.7 1.6,-1.1 2.6,-1.1 2,0 3.7,1.7 3.7,3.7 0,2 -1.7,3.7 -3.7,3.7 -0.9,0 -1.9,-0.4 -2.6,-1.1 0,0 0.7,0.7 0,0 z m 1.1,-2.6 c 0,0.9 0.7,1.6 1.6,1.6 0.9,0 1.6,-0.7 1.6,-1.6 0,-0.9 -0.7,-1.6 -1.6,-1.6 -0.9,0 -1.6,0.7 -1.6,1.6 z M 48.3,37.4 c 6.7,0 9.2,2.8 9.2,2.8 0,0 -7.1,-1.2 -9.5,7.8 -2.4,-9 -9.5,-7.7 -9.5,-7.7 0,0 2.5,-2.8 9.2,-2.8 h 0.6 z"
   class="st1"
   id="XMLID_14_" />
</g>
</svg>
