<?xml version="1.0" encoding="UTF-8" standalone="no"?>
<svg
   xmlns:dc="http://purl.org/dc/elements/1.1/"
   xmlns:cc="http://creativecommons.org/ns#"
   xmlns:rdf="http://www.w3.org/1999/02/22-rdf-syntax-ns#"
   xmlns:svg="http://www.w3.org/2000/svg"
   xmlns="http://www.w3.org/2000/svg"
   xmlns:sodipodi="http://sodipodi.sourceforge.net/DTD/sodipodi-0.dtd"
   xmlns:inkscape="http://www.inkscape.org/namespaces/inkscape"
   inkscape:version="1.0 (4035a4fb49, 2020-05-01)"
   height="55"
   width="55"
   sodipodi:docname="yelp.svg"
   xml:space="preserve"
   viewBox="0 0 55 55"
   y="0px"
   x="0px"
   id="Layer_1"
   version="1.1"><metadata
   id="metadata12"><rdf:RDF><cc:Work
       rdf:about=""><dc:format>image/svg+xml</dc:format><dc:type
         rdf:resource="http://purl.org/dc/dcmitype/StillImage" /><dc:title></dc:title></cc:Work></rdf:RDF></metadata><defs
   id="defs10" /><sodipodi:namedview
   inkscape:current-layer="Layer_1"
   inkscape:window-maximized="1"
   inkscape:window-y="-8"
   inkscape:window-x="-8"
   inkscape:cy="27.5"
   inkscape:cx="27.5"
   inkscape:zoom="9.2708333"
   fit-margin-bottom="0"
   fit-margin-right="0"
   fit-margin-left="0"
   fit-margin-top="0"
   showgrid="false"
   id="namedview8"
   inkscape:window-height="1057"
   inkscape:window-width="1920"
   inkscape:pageshadow="2"
   inkscape:pageopacity="0"
   guidetolerance="10"
   gridtolerance="10"
   objecttolerance="10"
   borderopacity="1"
   bordercolor="#666666"
   pagecolor="#ffffff" />
<style
   id="style2"
   type="text/css">
	.st0{fill:#CA4638;}
	.st1{fill:#FFFFFF;}
</style>
<g
   transform="translate(-20.5,-20.5)"
   id="XMLID_1_">
	<circle
   r="27.5"
   cy="48"
   cx="48"
   class="st0"
   id="XMLID_3_" />
	<path
   d="m 51.2,51.6 c -0.6,0.6 -0.1,1.6 -0.1,1.6 l 4.3,7.2 c 0,0 0.7,0.9 1.3,0.9 0.6,0 1.2,-0.5 1.2,-0.5 l 3.4,-4.9 c 0,0 0.3,-0.6 0.4,-1.1 0,-0.8 -1.1,-1 -1.1,-1 l -8,-2.6 c -0.1,0.1 -0.9,-0.1 -1.4,0.4 z M 50.8,48 c 0.4,0.7 1.5,0.5 1.5,0.5 l 8,-2.3 c 0,0 1.1,-0.4 1.3,-1 0.2,-0.6 -0.2,-1.3 -0.2,-1.3 l -3.8,-4.5 c 0,0 -0.3,-0.6 -1,-0.6 -0.8,-0.1 -1.2,0.9 -1.2,0.9 l -4.5,7.1 C 50.8,46.6 50.4,47.4 50.8,48 Z M 47,45.2 c 0.9,-0.2 1.1,-1.6 1.1,-1.6 L 48,32.2 c 0,0 -0.1,-1.4 -0.8,-1.8 -1,-0.6 -1.3,-0.3 -1.6,-0.2 L 39,32.6 c 0,0 -0.7,0.2 -1,0.8 -0.5,0.8 0.5,1.9 0.5,1.9 l 6.9,9.4 c 0,0 0.7,0.7 1.6,0.5 z m -1.6,4.6 c 0,-0.9 -1.1,-1.4 -1.1,-1.4 l -7.2,-3.6 c 0,0 -1.1,-0.4 -1.6,-0.1 -0.4,0.2 -0.7,0.7 -0.8,1 l -0.5,5.7 c 0,0 -0.1,1 0.2,1.4 0.4,0.6 1.6,0.2 1.6,0.2 l 8.4,-1.8 c 0.4,-0.2 0.9,-0.2 1,-1.4 z m 2,3.1 c -0.7,-0.4 -1.6,0.4 -1.6,0.4 l -5.6,6.2 c 0,0 -0.7,0.9 -0.5,1.5 0.2,0.5 0.4,0.8 0.8,1 l 5.6,1.8 c 0,0 0.7,0.1 1.2,0 0.7,-0.2 0.6,-1.4 0.6,-1.4 L 48,54.1 c 0.1,0 0.1,-0.8 -0.6,-1.2 z"
   class="st1"
   id="XMLID_9_" />
</g>
</svg>
